<?xml version="1.0" standalone="no"?>
<!DOCTYPE svg PUBLIC "-//W3C//DTD SVG 1.1//EN" "http://www.w3.org/Graphics/SVG/1.1/DTD/svg11.dtd" >
<svg xmlns="http://www.w3.org/2000/svg" xmlns:xlink="http://www.w3.org/1999/xlink" version="1.1">
<metadata>
Created by FontForge 20170731 at Sat Aug 13 11:36:27 2005
 By Aleksey,,,
Copr.1993 Tobias Frere-Jones. Produced by The Font Bureau, Inc. Based on a design by S.H. deRoos.
</metadata>
<defs>
<font id="Nobel-Bold" horiz-adv-x="730" >
  <font-face 
    font-family="Nobel"
    font-weight="700"
    font-stretch="normal"
    units-per-em="1000"
    panose-1="2 0 8 3 4 0 0 2 0 3"
    ascent="800"
    descent="-200"
    x-height="431"
    cap-height="730"
    bbox="-63 -191 1084 957"
    underline-thickness="20"
    underline-position="-153"
    unicode-range="U+0005-2122"
  />
<missing-glyph horiz-adv-x="500" 
 />
    <glyph glyph-name=".notdef" horiz-adv-x="500" 
 />
    <glyph glyph-name=".null" horiz-adv-x="0" 
 />
    <glyph glyph-name="nonmarkingreturn" horiz-adv-x="225" 
 />
    <glyph glyph-name="breve" horiz-adv-x="500" 
d="M398 637q-6 -72 -46.5 -109.5t-101.5 -37.5t-101.5 37.5t-46.5 109.5h75q3 -12 8 -24.5t14 -23.5t21.5 -18t29.5 -7t30 7.5t21.5 18.5t14 23.5t7.5 23.5h75v0z" />
    <glyph glyph-name="dotaccent" horiz-adv-x="500" 
d="M186 495v130h126v-130h-126z" />
    <glyph glyph-name="ring" horiz-adv-x="500" 
d="M379 617q0 -26 -10.5 -49.5t-28 -41t-41 -28t-49.5 -10.5t-49.5 10.5t-41 28t-28 41t-10.5 49.5t10.5 49.5t28 41t41 28t49.5 10.5t49.5 -10.5t41 -28t28 -41t10.5 -49.5zM303 617q0 23 -15 38t-38 15t-38 -15t-15 -38t15 -38t38 -15t38 15t15 38z" />
    <glyph glyph-name="hungarumlaut" unicode="&#xa;" horiz-adv-x="500" 
d="M349 495h-123l93 167h123zM181 495h-123l93 167h123z" />
    <glyph glyph-name="ogonek" horiz-adv-x="500" 
d="M339 -149q-39 -32 -99 -32q-21 0 -41.5 5.5t-37 16t-26.5 26t-10 35.5q0 28 24 56t77 54h66q-25 -17 -41.5 -32t-26 -28t-13.5 -24.5t-4 -21.5q0 -22 12 -30.5t26 -8.5q20 0 34.5 4.5t32.5 16.5l27 -37v0z" />
    <glyph glyph-name="caron" horiz-adv-x="500" 
d="M302 495h-108l-103 147h113l45 -70l45 70h111z" />
    <glyph glyph-name="dotlessi" unicode="&#xd;" horiz-adv-x="255" 
d="M50 0v431h155v-431h-155z" />
    <glyph glyph-name="fraction" horiz-adv-x="452" 
d="M92 0h-155l423 730h155z" />
    <glyph glyph-name="fi" horiz-adv-x="559" 
d="M354 501v142h155v-142h-155zM354 0v431h155v-431h-155zM226 316v-316h-155v316h-54v115h54v178q0 60 31.5 96.5t94.5 36.5h81v-130h-25q-8 0 -13 -5t-8 -12.5t-4.5 -16t-1.5 -15.5v-132h57v-115h-57z" />
    <glyph glyph-name="fl" horiz-adv-x="559" 
d="M354 0v730h155v-730h-155zM226 316v-316h-155v316h-54v115h54v178q0 60 31.5 96.5t94.5 36.5h81v-130h-25q-8 0 -13 -5t-8 -12.5t-4.5 -16t-1.5 -15.5v-132h57v-115h-57z" />
    <glyph glyph-name="Lslash" horiz-adv-x="550" 
d="M95 0v278l-44 -18l-52 112l96 39v319h160v-253l101 41l51 -112l-152 -62v-209h260v-135h-420z" />
    <glyph glyph-name="lslash" horiz-adv-x="325" 
d="M240 338v-338h-155v274l-34 -14l-52 112l86 35v323h155v-259l35 14l51 -112z" />
    <glyph glyph-name="Zcaron" horiz-adv-x="660" 
d="M277 135h328v-135h-576l336 595h-300v135h548zM385 790h-108l-103 147h113l45 -70l45 70h111z" />
    <glyph glyph-name="zcaron" horiz-adv-x="475" 
d="M270 143l-6 -8l-6 -8q-4 -4 -7 -9q5 0 10 1q5 0 10 0.5t10 0.5h155v-120h-427l195 289q3 5 6 9t6 7q3 4 6 7q-4 -1 -8 -1h-18h-158v120h423zM293 495h-108l-103 147h113l45 -70l45 70h111z" />
    <glyph glyph-name="space" unicode=" " horiz-adv-x="225" 
 />
    <glyph glyph-name="space" unicode="&#xa0;" horiz-adv-x="225" 
 />
    <glyph glyph-name="exclam" unicode="!" horiz-adv-x="306" 
d="M208 200h-110l-23 261v269h156v-269zM75 0v146h156v-146h-156z" />
    <glyph glyph-name="quotedbl" unicode="&#x22;" horiz-adv-x="450" 
d="M373 443h-90l-27 140v147h144v-147zM167 443h-90l-27 140v147h144v-147z" />
    <glyph glyph-name="numbersign" unicode="#" horiz-adv-x="686" 
d="M509 187l-16 -187h-125l16 187h-114l-16 -187h-125l16 187h-85v111h95l12 137h-107v111h117l16 184h125l-16 -184h114l16 184h125l-16 -184h85v-111h-95l-12 -137h107v-111h-117zM292 435l-12 -137h114l12 137h-114z" />
    <glyph glyph-name="dollar" unicode="$" horiz-adv-x="687" 
d="M650 216q0 -53 -21.5 -91.5t-57.5 -65t-83 -41t-97 -18.5v-100h-86v100q-81 7 -147 39.5t-126 93.5l97 94q31 -32 76.5 -59t99.5 -36v183q-48 9 -93.5 24t-80 39.5t-55.5 60.5t-21 89q0 45 19 81t52.5 61.5t79.5 40.5t99 19v70h86v-70q39 -4 72.5 -15t63 -26.5t55.5 -34
t50 -38.5l-92 -96q-27 28 -66.5 49t-82.5 29v-156q50 -11 97 -26.5t83 -41t57.5 -64t21.5 -94.5zM305 600q-54 -5 -77 -23.5t-23 -48.5q0 -26 28 -41t72 -26v139zM500 206q0 36 -26 56.5t-83 34.5v-167q20 3 39.5 8t35 14t25 22t9.5 32z" />
    <glyph glyph-name="percent" unicode="%" horiz-adv-x="770" 
d="M740 179q0 -41 -11.5 -75.5t-32 -60.5t-49 -40.5t-61.5 -14.5q-27 0 -53.5 11.5t-48 35t-35 59t-13.5 82.5q0 40 11.5 74.5t32 60t48.5 40t61 14.5q34 0 62 -15t47.5 -40.5t30.5 -59t11 -71.5zM206 0h-141l499 730h141zM341 556q0 -41 -11.5 -75.5t-32 -60.5t-49 -40.5
t-61.5 -14.5q-27 0 -53.5 11.5t-48 35t-35 59t-13.5 82.5q0 40 11.5 74.5t32 60t48.5 40t61 14.5q34 0 62 -15t47.5 -40.5t30.5 -59t11 -71.5zM636 176q0 18 -2.5 36.5t-8 32.5t-14.5 23t-23 9t-23.5 -8.5t-15 -22.5t-8 -32.5t-2.5 -37.5t2 -37t7.5 -32t14.5 -22.5t23 -8.5
q15 0 24.5 8.5t15.5 22.5t8 32t2 37zM237 553q0 18 -2.5 36.5t-8 32.5t-14.5 23t-23 9t-23.5 -8.5t-15 -22.5t-8 -32.5t-2.5 -37.5t2 -37t7.5 -32t14.5 -22.5t23 -8.5q15 0 24.5 8.5t15.5 22.5t8 32t2 37z" />
    <glyph glyph-name="ampersand" unicode="&#x26;" horiz-adv-x="690" 
d="M496 0l-34 42q-41 -24 -87 -39t-97 -15q-48 0 -94 16t-82 45t-58 69.5t-22 89.5q0 37 12 67t31.5 55t45 46t52.5 39q-16 19 -29.5 36.5t-23.5 35.5t-16 38.5t-6 46.5q0 38 16.5 69.5t43.5 54t62.5 34.5t73.5 12q39 0 74.5 -12.5t63.5 -35.5t44.5 -55t16.5 -71
q0 -31 -11 -55.5t-29 -45.5t-41.5 -38.5t-49.5 -33.5l135 -169q23 23 43 45.5t37 42.5l88 -99q-17 -21 -38.5 -44.5t-47.5 -47.5l99 -123h-172zM348 574q0 26 -18 41.5t-44 15.5q-23 0 -40.5 -18t-17.5 -41q0 -18 16 -40t35 -45q30 20 49.5 40.5t19.5 46.5zM238 322
q-27 -22 -44.5 -47.5t-17.5 -58.5q0 -24 10.5 -43t28 -32.5t39 -20.5t44.5 -7q21 0 42.5 7.5t42.5 20.5z" />
    <glyph glyph-name="quotesingle" unicode="'" horiz-adv-x="250" 
d="M167 443h-90l-27 140v147h144v-147z" />
    <glyph glyph-name="parenleft" unicode="(" horiz-adv-x="362" 
d="M330 -179q-141 69 -215.5 188t-74.5 282q0 78 23.5 149t63 129.5t92 102.5t111.5 70v-133q-57 -64 -86.5 -138.5t-29.5 -179.5q0 -104 26.5 -183.5t89.5 -152.5v-134v0z" />
    <glyph glyph-name="parenright" unicode=")" horiz-adv-x="362" 
d="M322 291q0 -163 -74.5 -282t-215.5 -188v134q63 73 89.5 152.5t26.5 183.5q0 105 -29.5 179.5t-86.5 138.5v133q58 -26 111 -70t92.5 -102.5t63 -129.5t23.5 -149z" />
    <glyph glyph-name="asterisk" unicode="*" horiz-adv-x="426" 
d="M295 516l52 -105l-50 -38l-85 84l-84 -83l-51 36l53 107l-105 54l19 60l118 -18l19 117h62l18 -117l118 18l22 -59z" />
    <glyph glyph-name="plus" unicode="+" horiz-adv-x="542" 
d="M338 266v-161h-134v161h-169v130h169v161h134v-161h169v-130h-169z" />
    <glyph glyph-name="comma" unicode="," horiz-adv-x="250" 
d="M194 37q0 -56 -23.5 -104t-56.5 -93l-95 56q15 23 23 53.5t8 62.5v139h144v-114v0z" />
    <glyph glyph-name="hyphen" unicode="-" horiz-adv-x="380" 
d="M40 204v132h300v-132h-300z" />
    <glyph glyph-name="period" unicode="." horiz-adv-x="250" 
d="M50 0v151h150v-151h-150z" />
    <glyph glyph-name="slash" unicode="/" horiz-adv-x="444" 
d="M171 0h-151l254 730h150z" />
    <glyph glyph-name="zero" unicode="0" horiz-adv-x="643" 
d="M611 368q0 -83 -20 -152.5t-57.5 -120t-92 -79t-123.5 -28.5t-123.5 28.5t-92 79t-57 120t-19.5 152.5q0 80 19.5 148.5t57 118.5t92 78.5t123.5 28.5t123.5 -28.5t92 -78.5t57.5 -118.5t20 -148.5zM445 368q0 40 -5.5 82.5t-20 77t-39 57t-62.5 22.5q-40 0 -64.5 -22.5
t-38 -57.5t-18.5 -77t-5 -82t5.5 -83t19.5 -79t38.5 -59.5t62.5 -23.5q40 0 65 23t38.5 59t18.5 79.5t5 83.5z" />
    <glyph glyph-name="one" unicode="1" horiz-adv-x="400" 
d="M172 0v520q-26 -26 -65.5 -38.5t-86.5 -16.5v118q31 4 59 12.5t52 25t45 42.5t39 67h117v-730h-160z" />
    <glyph glyph-name="two" unicode="2" horiz-adv-x="580" 
d="M533 531q0 -56 -20 -97t-49 -79l-169 -220h232v-135h-504l307 415q11 15 19 28t13.5 26.5t8 28t2.5 33.5q0 33 -21 57t-57 24q-20 0 -38 -4.5t-32.5 -16t-23 -31t-8.5 -50.5v-16h-150v16q0 59 21 102.5t56 72.5t80.5 43t94.5 14q48 0 91.5 -13.5t76 -39.5t51.5 -66
t19 -92z" />
    <glyph glyph-name="three" unicode="3" horiz-adv-x="598" 
d="M556 225q0 -52 -19.5 -95.5t-55.5 -75t-88 -49t-116 -17.5q-86 0 -150.5 29.5t-110.5 78.5l85 100q34 -31 79 -49.5t97 -18.5q50 0 84.5 25.5t34.5 71.5q0 50 -35.5 69t-101.5 19h-45v130h63q51 0 76 18.5t25 66.5q0 34 -29.5 54t-71.5 20q-48 0 -81 -9.5t-65 -36.5
l-75 105q28 22 55 37.5t55 25.5t59 14t67 4q46 0 90 -14t78.5 -39.5t56 -61.5t21.5 -81q0 -55 -27 -96t-77 -60q57 -16 89.5 -60.5t32.5 -104.5z" />
    <glyph glyph-name="four" unicode="4" horiz-adv-x="591" 
d="M472 178v-178h-160v178h-297v94l329 458h128v-432h84v-120h-84zM312 515l-154 -217h154v217z" />
    <glyph glyph-name="five" unicode="5" horiz-adv-x="600" 
d="M548 257q0 -58 -22.5 -107.5t-61.5 -85.5t-90.5 -56t-109.5 -20q-36 0 -69.5 7t-63.5 19.5t-56 28.5t-45 34l86 108q32 -26 70 -41.5t78 -15.5q25 0 47.5 9.5t39.5 27t27 41t10 51.5q0 31 -10 54t-26.5 38.5t-36.5 23t-41 7.5q-32 0 -66.5 -19t-59.5 -57l-93 35l40 391
h401v-130h-280l-14 -129q31 24 60 31.5t70 7.5q47 0 87 -17.5t68.5 -50.5t44.5 -80t16 -105z" />
    <glyph glyph-name="six" unicode="6" horiz-adv-x="600" 
d="M583 246q0 -57 -21 -104t-59.5 -81.5t-91.5 -53.5t-116 -19q-61 0 -111 20t-86 54.5t-56 81.5t-20 102q0 81 27.5 155.5t70.5 140.5t96 120.5t103 95.5l96 -112q-27 -20 -55 -45.5t-53.5 -52.5t-45.5 -54.5t-29 -50.5q16 13 31 20.5t30 12t31.5 6t36.5 1.5q47 0 87.5 -19
t70.5 -51t47 -75t17 -92zM423 243q0 25 -9.5 46.5t-25.5 37.5t-38.5 24.5t-47.5 8.5q-54 0 -87 -33t-33 -84q0 -55 32.5 -90t87.5 -35q54 0 87.5 35t33.5 90z" />
    <glyph glyph-name="seven" unicode="7" horiz-adv-x="590" 
d="M239 0h-168l293 595h-306v135h513z" />
    <glyph glyph-name="eight" unicode="8" horiz-adv-x="636" 
d="M606 201q0 -49 -22 -88.5t-61 -67t-91.5 -42.5t-113.5 -15t-113.5 15t-91.5 44t-61 70t-22 94q0 67 35 111t94 71q-42 26 -67.5 57.5t-25.5 83.5q0 94 65 151t187 57t188.5 -57t66.5 -151q0 -52 -23 -83.5t-65 -57.5q59 -27 90 -72t31 -120zM423 534q0 20 -9 35.5
t-23.5 26t-33.5 16t-39 5.5t-38.5 -5.5t-32.5 -16t-22.5 -26t-8.5 -35.5q0 -42 30 -65t72 -23t73.5 23t31.5 65zM451 225q0 25 -11 44t-30 32t-43 19t-49 6q-26 0 -49.5 -6t-42.5 -19t-30 -32t-11 -44t11 -44.5t30 -33.5t42.5 -21.5t49.5 -7.5q25 0 49 7.5t43 21.5t30 33.5
t11 44.5z" />
    <glyph glyph-name="nine" unicode="9" horiz-adv-x="600" 
d="M577 484q0 -54 -15 -107.5t-39.5 -103.5t-55.5 -96t-64 -85t-65 -70t-58 -50l-96 112q27 20 55 45.5t53.5 52.5t45.5 54.5t29 50.5q-17 -13 -31.5 -20.5t-29.5 -12t-31.5 -6t-36.5 -1.5q-47 0 -87.5 18.5t-70.5 51t-47 75.5t-17 92q0 57 21 104t59.5 81.5t91.5 53.5
t116 19q61 0 111 -20t86 -54.5t56 -81.5t20 -102zM417 487q0 55 -32.5 90t-87.5 35q-54 0 -87.5 -35t-33.5 -90q0 -26 9.5 -47t25.5 -37t38 -24.5t48 -8.5q54 0 87 33t33 84z" />
    <glyph glyph-name="colon" unicode=":" horiz-adv-x="250" 
d="M50 280v151h150v-151h-150zM50 0v151h150v-151h-150z" />
    <glyph glyph-name="semicolon" unicode=";" horiz-adv-x="250" 
d="M50 280v151h150v-151h-150zM194 37q0 -56 -23.5 -104t-56.5 -93l-95 56q15 23 23 53.5t8 62.5v139h144v-114v0z" />
    <glyph glyph-name="less" unicode="&#x3c;" horiz-adv-x="390" 
d="M38 257v135l291 198v-155l-176 -110l176 -111v-157z" />
    <glyph glyph-name="equal" unicode="=" horiz-adv-x="522" 
d="M55 388v130h412v-130h-412zM55 148v130h412v-130h-412z" />
    <glyph glyph-name="greater" unicode="&#x3e;" horiz-adv-x="390" 
d="M61 60v155l176 110l-176 111v157l291 -200v-135z" />
    <glyph glyph-name="question" unicode="?" horiz-adv-x="460" 
d="M432 555q0 -29 -8.5 -54.5t-22.5 -49.5t-31.5 -46.5t-35.5 -43.5q-29 -36 -47 -70.5t-18 -72.5v-23h-144v23q0 52 19 95t49 81q15 20 30 38.5t27 36.5t19.5 34.5t7.5 33.5q0 32 -20 55.5t-49 23.5q-39 0 -63.5 -16.5t-47.5 -39.5l-82 101q38 40 85 60.5t108 20.5
q49 0 90 -13.5t71 -38t46.5 -59t16.5 -76.5zM119 0v146h156v-146h-156z" />
    <glyph glyph-name="at" unicode="@" horiz-adv-x="844" 
d="M799 395q0 -64 -20 -110t-49 -76t-60.5 -44t-53.5 -14q-37 0 -64.5 12.5t-41.5 32.5q-29 -21 -60.5 -33t-69.5 -12q-39 0 -68 11t-48.5 30t-29.5 44.5t-10 54.5q0 37 17.5 65t47.5 47.5t71.5 29.5t89.5 10h57q0 38 -18 50.5t-60 12.5q-78 0 -130 -23l-31 81q15 9 33.5 15
t39 9.5t40.5 5.5t37 2q87 0 139.5 -28.5t52.5 -95.5v-230q0 -13 7 -18t17 -5q16 0 34.5 10.5t34 31.5t26 53t10.5 75q0 61 -22 113.5t-63 91.5t-99.5 61.5t-131.5 22.5q-65 0 -122.5 -24t-100.5 -66.5t-67.5 -100.5t-24.5 -126t24.5 -125.5t67.5 -99.5t100.5 -66t122.5 -24
q28 0 60 5t67 22l24 -52q-42 -19 -79.5 -26t-72.5 -7q-78 0 -146.5 29.5t-120 81t-81 120t-29.5 146.5t29.5 146.5t81 120t120 81t146.5 29.5q85 0 155 -27t119 -74.5t76 -110.5t27 -135zM505 356h-52q-60 0 -91 -17t-31 -47q0 -23 16.5 -35.5t58.5 -12.5q32 0 55 8t44 26
v78z" />
    <glyph glyph-name="A" unicode="A" horiz-adv-x="710" 
d="M519 0l-56 184h-222l-57 -184h-169l261 730h154l265 -730h-176zM369 497q-7 22 -11 39q-3 10 -5 20q-2 -9 -5 -19q-2 -8 -4.5 -19t-5.5 -21l-55 -178h140z" />
    <glyph glyph-name="B" unicode="B" horiz-adv-x="660" 
d="M620 207q0 -49 -19 -87.5t-53.5 -65t-84.5 -40.5t-111 -14h-277v730h253q57 0 104 -13.5t80.5 -38.5t51.5 -61.5t18 -82.5q0 -55 -31 -96.5t-79 -59.5q31 -5 58.5 -20t47 -38.5t31 -52.5t11.5 -60zM425 515q0 46 -29 63t-83 17h-78v-169h78q112 0 112 89zM455 216
q0 38 -26.5 56.5t-76.5 18.5h-117v-156h117q57 0 80 21.5t23 59.5z" />
    <glyph glyph-name="C" unicode="C" horiz-adv-x="720" 
d="M689 106q-51 -55 -116 -86.5t-160 -31.5q-83 0 -152 26.5t-118 76t-76 120t-27 158.5q0 82 29 150.5t79 118t117.5 77t144.5 27.5q81 0 143.5 -25t119.5 -83l-90 -105q-73 73 -173 73q-47 0 -85 -17.5t-64.5 -48.5t-41 -74t-14.5 -93q0 -113 53 -177t155 -64q34 0 60.5 7
t48 18t39.5 26t36 32l92 -105v0z" />
    <glyph glyph-name="D" unicode="D" horiz-adv-x="716" 
d="M676 366q0 -90 -32 -158.5t-85 -114.5t-121.5 -69.5t-141.5 -23.5h-221v730h221q78 0 147 -23.5t121 -70t82 -114.5t30 -156zM511 366q0 48 -15.5 90t-44 72.5t-68 48.5t-87.5 18h-61v-460h61q51 0 91 19t67.5 50.5t42 73.5t14.5 88z" />
    <glyph glyph-name="E" unicode="E" horiz-adv-x="572" 
d="M75 0v730h425v-135h-265v-171h246v-135h-246v-154h280v-135h-440z" />
    <glyph glyph-name="F" unicode="F" horiz-adv-x="521" 
d="M235 595v-174h216v-135h-216v-286h-160v730h391v-135h-231z" />
    <glyph glyph-name="G" unicode="G" horiz-adv-x="805" 
d="M771 368q0 -90 -28 -161t-76 -119.5t-113 -74t-140 -25.5q-81 0 -150 27.5t-118.5 78t-77.5 120.5t-28 154q0 85 29.5 154t80 118t118 75.5t143.5 26.5q97 0 165.5 -33.5t116.5 -85.5l-99 -97q-34 37 -80.5 56.5t-102.5 19.5q-46 0 -85 -19t-67.5 -51t-44.5 -74.5
t-16 -89.5q0 -48 16 -91.5t45 -76.5t68.5 -52.5t86.5 -19.5q66 0 112.5 26t67.5 79h-186v135h363v0z" />
    <glyph glyph-name="H" unicode="H" horiz-adv-x="724" 
d="M489 0v292h-254v-292h-160v730h160v-303h254v303h160v-730h-160z" />
    <glyph glyph-name="I" unicode="I" horiz-adv-x="310" 
d="M75 0v730h160v-730h-160z" />
    <glyph glyph-name="J" unicode="J" horiz-adv-x="431" 
d="M361 231q0 -51 -19.5 -93.5t-52.5 -73t-77 -47.5t-94 -17h-83v137h51q57 0 86 30t29 100v463h160v-499v0z" />
    <glyph glyph-name="K" unicode="K" horiz-adv-x="712" 
d="M489 0l-213 299l-41 -45v-254h-160v730h160v-265l236 265h198l-284 -311l298 -419h-194z" />
    <glyph glyph-name="L" unicode="L" horiz-adv-x="530" 
d="M75 0v730h160v-595h260v-135h-420z" />
    <glyph glyph-name="M" unicode="M" horiz-adv-x="880" 
d="M645 0v421v18.5t1 16.5l2 16l-4 -10t-4.5 -9.5t-4.5 -9.5l-163 -299h-61l-166 299q-5 8 -9 19l-4 10q0 -8 1 -16t1.5 -16.5t0.5 -18.5v-421h-160v730h157l197 -356q3 -5 5.5 -11t4.5 -11q2 -6 4 -11q2 5 4 11q2 5 4 11t5 11l186 356h163v-730h-160z" />
    <glyph glyph-name="N" unicode="N" horiz-adv-x="786" 
d="M573 0l-322 425q-4 5 -7.5 10t-5.5 10l-5 10q0 -6 1 -12q0 -5 0.5 -11.5t0.5 -13.5v-418h-160v730h138l322 -421q4 -5 7.5 -10t5.5 -10l5 -10q-1 6 -1 12q-1 5 -1 11.5v13.5v414h160v-730h-138z" />
    <glyph glyph-name="O" unicode="O" horiz-adv-x="832" 
d="M792 368q0 -79 -27 -148.5t-76.5 -121t-119 -81t-154.5 -29.5t-154 30t-118 82t-76 121t-27 147q0 79 27 147t76.5 118.5t119 79.5t154.5 29t154.5 -28t118.5 -77.5t75.5 -118.5t26.5 -150zM627 368q0 48 -15 90.5t-42.5 74.5t-66 50.5t-86.5 18.5q-47 0 -86 -19.5
t-67 -52t-43.5 -74.5t-15.5 -88q0 -50 17 -94t45.5 -76.5t66.5 -51t81 -18.5q49 0 88.5 20t67 53.5t42 77t14.5 89.5z" />
    <glyph glyph-name="P" unicode="P" horiz-adv-x="609" 
d="M584 515q0 -52 -18.5 -93.5t-53 -71t-84 -45t-111.5 -15.5h-82v-290h-160v730h242q61 0 110.5 -14.5t84 -42t53.5 -67.5t19 -91zM424 512q0 45 -26.5 64t-80.5 19h-82v-170h82q107 0 107 87z" />
    <glyph glyph-name="Q" unicode="Q" horiz-adv-x="832" 
d="M735 -18q-22 7 -51 24t-61 40q-44 -28 -96 -43t-112 -15q-85 0 -154 30t-118 82t-76 121t-27 147q0 79 27 147t76.5 118.5t119 79.5t154.5 29t154.5 -28t118.5 -77.5t75.5 -118.5t26.5 -150q0 -66 -19 -125t-54 -107q22 -13 42 -22.5t39 -14.5zM627 368q0 46 -15 88
t-43 74.5t-66.5 52t-85.5 19.5t-86 -19.5t-67 -52t-43.5 -74.5t-15.5 -88q0 -49 17 -92.5t45.5 -76.5t67 -52t80.5 -19q52 0 95 23q-22 27 -34 49l85 78q7 -10 15.5 -19.5t18.5 -20.5q32 59 32 130z" />
    <glyph glyph-name="R" unicode="R" horiz-adv-x="649" 
d="M438 0l-203 345v-345h-160v730h262q57 0 103.5 -16.5t79.5 -45.5t50.5 -69t17.5 -87q0 -82 -45.5 -134.5t-117.5 -72.5l194 -305h-181zM428 512q0 38 -26.5 60.5t-64.5 22.5h-102v-176h102q42 0 66.5 25t24.5 68z" />
    <glyph glyph-name="S" unicode="S" horiz-adv-x="593" 
d="M540 207q0 -104 -68.5 -161.5t-187.5 -57.5q-76 0 -134 25t-111 66l83 112q32 -26 76 -44.5t89 -18.5q55 0 74 18t19 51q0 27 -21.5 46.5t-52.5 34t-64 26.5t-56 25q-27 15 -51 32t-42 40.5t-28 54.5t-10 75q0 56 22.5 96t59 65.5t83.5 37.5t95 12q52 0 109 -15t102 -48
l-72 -119q-24 18 -61.5 30t-77.5 12q-28 0 -47 -7t-31 -17.5t-17 -23t-5 -23.5q0 -25 16 -42t41.5 -30.5t57 -25t63.5 -25.5q27 -12 53 -28t47 -39.5t34 -56t13 -77.5z" />
    <glyph glyph-name="T" unicode="T" horiz-adv-x="516" 
d="M340 595v-595h-160v595h-145v135h446v-135h-141z" />
    <glyph glyph-name="U" unicode="U" horiz-adv-x="772" 
d="M702 296q0 -75 -26 -132.5t-70 -96.5t-102 -59t-122 -20q-63 0 -119.5 20t-99.5 59t-68 96.5t-25 132.5v434h161v-434q0 -37 11 -68.5t31.5 -54t48 -35t60.5 -12.5q34 0 63 12.5t51 35t34.5 54t12.5 68.5v434h159v-434v0z" />
    <glyph glyph-name="V" unicode="V" horiz-adv-x="660" 
d="M407 0h-153l-239 730h164l142 -466q2 -8 4 -15t4 -13q2 -7 3 -13l4 14q3 12 8 27l141 466h160z" />
    <glyph glyph-name="W" unicode="W" horiz-adv-x="954" 
d="M727 0h-155l-79 384q-2 11 -5 30.5t-5 38.5q-3 22 -5 46q-2 -25 -5 -47q-2 -19 -5 -38t-5 -30l-79 -384h-160l-189 730h166l94 -390q2 -11 4.5 -24t4.5 -25q2 -14 3 -28q1 13 3 27q2 11 4 25t4 25l80 390h159l86 -390q2 -9 3.5 -22.5t3.5 -25.5q2 -14 4 -29q1 14 3 28
q2 12 4 25t5 24l91 390h162z" />
    <glyph glyph-name="X" unicode="X" horiz-adv-x="699" 
d="M496 0l-148 258l-146 -258h-178l234 398l-198 332h177l111 -191l105 191h179l-196 -332l239 -398h-179z" />
    <glyph glyph-name="Y" unicode="Y" horiz-adv-x="690" 
d="M423 296v-296h-160v296l-248 434h182l134 -253q3 -6 5.5 -13t4.5 -13q2 -7 4 -13q1 6 4 13q3 12 10 26l133 253h183z" />
    <glyph glyph-name="Z" unicode="Z" horiz-adv-x="660" 
d="M277 135h328v-135h-576l336 595h-300v135h548z" />
    <glyph glyph-name="bracketleft" unicode="[" horiz-adv-x="365" 
d="M75 -179v909h260v-134h-108v-641h108v-134h-260z" />
    <glyph glyph-name="backslash" unicode="\" horiz-adv-x="444" 
d="M273 0l-253 730h150l254 -730h-151z" />
    <glyph glyph-name="bracketright" unicode="]" horiz-adv-x="365" 
d="M30 -179v134h108v641h-108v134h260v-909h-260z" />
    <glyph glyph-name="asciicircum" unicode="^" horiz-adv-x="583" 
d="M396 369l-106 226l-105 -226h-155l183 361h155l185 -361h-157z" />
    <glyph glyph-name="underscore" unicode="_" horiz-adv-x="500" 
d="M0 -173v110h500v-110h-500z" />
    <glyph glyph-name="grave" unicode="`" horiz-adv-x="500" 
d="M231 495l-109 167h143l77 -167h-111z" />
    <glyph glyph-name="a" unicode="a" horiz-adv-x="529" 
d="M327 0v33q-18 -12 -33 -21t-31.5 -14t-36.5 -7.5t-48 -2.5q-31 0 -59.5 9.5t-50 27t-34 42t-12.5 55.5q0 50 28 81.5t72 49.5t98 25.5t107 9.5v15q0 23 -15.5 31.5t-48.5 8.5q-45 0 -82.5 -10t-71.5 -27l-48 93q43 24 95.5 34t111.5 10q107 0 160.5 -38.5t53.5 -130.5
v-274h-155zM327 201q-25 0 -50 -3t-45 -10.5t-32.5 -19.5t-12.5 -30q0 -19 15.5 -29.5t34.5 -10.5q29 0 50 7t40 24v72z" />
    <glyph glyph-name="b" unicode="b" horiz-adv-x="562" 
d="M537 215q0 -45 -14.5 -86.5t-41 -72.5t-64 -49.5t-82.5 -18.5q-39 0 -75.5 15t-54.5 41v-44h-155v730h155v-343q18 26 54.5 41t75.5 15q45 0 82.5 -19t64 -50.5t41 -73t14.5 -85.5zM382 217q0 45 -25 72t-63 27q-40 0 -64.5 -27.5t-24.5 -71.5q0 -45 24 -73.5t65 -28.5
q38 0 63 28.5t25 73.5z" />
    <glyph glyph-name="c" unicode="c" horiz-adv-x="462" 
d="M451 81q-39 -49 -82.5 -71t-106.5 -22q-51 0 -94.5 17.5t-75 47.5t-49.5 71.5t-18 89.5q0 47 17.5 88.5t49 73t75 49.5t95.5 18q55 0 97.5 -19t77.5 -61l-89 -83q-37 40 -86 40q-42 0 -67.5 -30t-25.5 -76q0 -20 6.5 -38.5t19 -33t29.5 -23.5t38 -9q30 0 48.5 11.5
t36.5 32.5l104 -73v0z" />
    <glyph glyph-name="d" unicode="d" horiz-adv-x="562" 
d="M357 0v44q-18 -26 -54.5 -41t-75.5 -15q-45 0 -82.5 18.5t-64 49.5t-41 72.5t-14.5 86.5q0 44 14.5 85.5t41 73t64 50.5t82.5 19q39 0 75.5 -15t54.5 -41v343h155v-730h-155zM357 217q0 44 -24.5 71.5t-64.5 27.5q-38 0 -63 -27t-25 -72t25 -73.5t63 -28.5q41 0 65 28.5
t24 73.5z" />
    <glyph glyph-name="e" unicode="e" horiz-adv-x="504" 
d="M477 60q-49 -41 -100 -56.5t-110 -15.5q-47 0 -91 13t-77.5 41t-53.5 71.5t-20 105.5q0 54 17 95.5t46 70t69 43.5t85 15q51 0 93.5 -17.5t73 -50.5t47 -80t16.5 -106h-302q4 -38 27.5 -64.5t69.5 -26.5q51 0 83.5 11.5t60.5 34.5l66 -84v0zM313 271q-3 33 -22.5 52.5
t-50.5 19.5q-33 0 -48 -20.5t-21 -51.5h142v0z" />
    <glyph glyph-name="f" unicode="f" horiz-adv-x="304" 
d="M226 316v-316h-155v316h-54v115h54v178q0 60 31.5 96.5t94.5 36.5h81v-130h-25q-16 0 -21.5 -14.5t-5.5 -34.5v-132h57v-115h-57z" />
    <glyph glyph-name="g" unicode="g" horiz-adv-x="562" 
d="M512 9q0 -98 -63 -149t-171 -51q-67 0 -123 16t-85 33l50 102q29 -17 66.5 -26t81.5 -9q52 0 70.5 23.5t18.5 55.5v45q-17 -21 -50 -38.5t-80 -17.5q-45 0 -82.5 18t-64 49t-41 71.5t-14.5 84.5q0 45 14.5 86.5t41 72.5t64 49.5t82.5 18.5q39 0 75.5 -15t54.5 -41v44h155
v-422v0zM357 214q0 45 -24 73.5t-65 28.5q-38 0 -63 -28.5t-25 -73.5t25 -72t63 -27q40 0 64.5 27.5t24.5 71.5z" />
    <glyph glyph-name="h" unicode="h" horiz-adv-x="539" 
d="M337 0v222q0 44 -13 67.5t-48 23.5q-34 0 -52.5 -23t-18.5 -63v-227h-155v730h155v-344q21 29 53.5 43t70.5 14q43 0 74 -14.5t51 -39t29 -58t9 -72.5v-259h-155z" />
    <glyph glyph-name="i" unicode="i" horiz-adv-x="255" 
d="M50 501v142h155v-142h-155zM50 0v431h155v-431h-155z" />
    <glyph glyph-name="j" unicode="j" horiz-adv-x="255" 
d="M50 501v142h155v-142h-155zM205 -46q0 -60 -31.5 -96.5t-94.5 -36.5h-94v130h38q16 0 21.5 13t5.5 36v431h155v-477v0z" />
    <glyph glyph-name="k" unicode="k" horiz-adv-x="544" 
d="M358 247l165 -247h-184l-90 137l-44 -47v-90h-155v730h155v-467l155 168h173z" />
    <glyph glyph-name="l" unicode="l" horiz-adv-x="255" 
d="M50 0v730h155v-730h-155z" />
    <glyph glyph-name="m" unicode="m" horiz-adv-x="806" 
d="M604 0v222q0 44 -10.5 67.5t-45.5 23.5q-37 0 -51.5 -24t-14.5 -62v-227h-155v222q0 44 -10.5 67.5t-45.5 23.5q-37 0 -51.5 -24t-14.5 -62v-227h-155v431h155v-45q22 32 51.5 44.5t67.5 12.5q51 0 82 -19.5t50 -51.5q23 29 57 50t88 21q43 0 73.5 -14.5t49 -39t27 -58
t8.5 -72.5v-259h-155z" />
    <glyph glyph-name="n" unicode="n" horiz-adv-x="539" 
d="M337 0v222q0 44 -13 67.5t-48 23.5q-34 0 -52.5 -23t-18.5 -63v-227h-155v431h155v-45q21 29 53.5 43t70.5 14q43 0 74 -14.5t51 -39t29 -58t9 -72.5v-259h-155z" />
    <glyph glyph-name="o" unicode="o" horiz-adv-x="515" 
d="M490 217q0 -48 -19 -90t-50.5 -72.5t-74 -48.5t-88.5 -18q-48 0 -90 17t-74 47.5t-50.5 72.5t-18.5 91q0 48 19 89.5t50.5 72t73.5 48t89 17.5t89.5 -17t74.5 -47t50.5 -71.5t18.5 -90.5zM339 217q0 18 -5 36.5t-15 33t-25.5 24t-36.5 9.5q-20 0 -35 -9.5t-25.5 -24.5
t-15.5 -33.5t-5 -36.5q0 -19 5 -37.5t15.5 -33.5t26 -24.5t35.5 -9.5t35.5 9.5t25.5 24.5t15 34t5 38z" />
    <glyph glyph-name="p" unicode="p" horiz-adv-x="562" 
d="M537 216q0 -44 -14.5 -85.5t-41 -73t-64 -50.5t-82.5 -19q-39 0 -75.5 15t-54.5 41v-223h-155v610h155v-44q18 26 54.5 41t75.5 15q45 0 82.5 -18.5t64 -49.5t41 -72.5t14.5 -86.5zM382 214q0 45 -25 73.5t-63 28.5q-41 0 -65 -28.5t-24 -73.5q0 -44 24.5 -71.5
t64.5 -27.5q38 0 63 27t25 72z" />
    <glyph glyph-name="q" unicode="q" horiz-adv-x="562" 
d="M357 -179v223q-18 -26 -54.5 -41t-75.5 -15q-45 0 -82.5 19t-64 50.5t-41 73t-14.5 85.5q0 45 14.5 86.5t41 72.5t64 49.5t82.5 18.5q39 0 75.5 -15t54.5 -41v44h155v-610h-155zM357 214q0 45 -24 73.5t-65 28.5q-38 0 -63 -28.5t-25 -73.5t25 -72t63 -27q40 0 64.5 27.5
t24.5 71.5z" />
    <glyph glyph-name="r" unicode="r" horiz-adv-x="424" 
d="M345 271q-20 15 -34.5 21t-34.5 6q-38 0 -54.5 -25.5t-16.5 -60.5v-212h-155v431h155v-57q16 27 45 48t67 21q29 0 55 -9t49 -32z" />
    <glyph glyph-name="s" unicode="s" horiz-adv-x="414" 
d="M389 125q0 -37 -15 -63t-40.5 -42.5t-58.5 -24t-68 -7.5q-51 0 -101 12t-85 37l50 98q26 -16 54 -26.5t59 -10.5q25 0 37.5 6.5t12.5 17.5q0 17 -17.5 27t-43.5 19q-22 8 -46 18t-44.5 26t-33.5 39.5t-13 59.5q0 32 13 57t37 41.5t57 25t73 8.5q49 0 84 -9.5t73 -30.5
l-44 -96q-29 16 -56.5 22t-53.5 6q-18 0 -32.5 -4.5t-14.5 -18.5q0 -11 22.5 -20.5t54.5 -21.5q24 -9 48.5 -20.5t45 -28.5t33.5 -40.5t13 -55.5z" />
    <glyph glyph-name="t" unicode="t" horiz-adv-x="344" 
d="M215 0q-33 0 -59.5 12t-45 33t-29 50t-10.5 63v158h-54v115h54v179h155v-179h73v-115h-73v-130q0 -25 12.5 -40.5t35.5 -15.5h38v-130h-97z" />
    <glyph glyph-name="u" unicode="u" horiz-adv-x="539" 
d="M334 0v45q-21 -29 -53.5 -43t-70.5 -14q-44 0 -74.5 14.5t-50.5 39t-29 58t-9 72.5v259h155v-222q0 -44 13 -67.5t48 -23.5q34 0 52.5 23t18.5 63v227h155v-431h-155z" />
    <glyph glyph-name="v" unicode="v" horiz-adv-x="510" 
d="M310 0h-106l-194 431h165l69 -177q3 -8 5 -18t4 -18l4 -20q1 10 4 20q3 17 10 36l69 177h160z" />
    <glyph glyph-name="w" unicode="w" horiz-adv-x="760" 
d="M575 0h-96l-82 162q-3 5 -4.5 11t-3.5 11q-2 6 -3 12q-2 -7 -4 -13q-2 -5 -4 -11t-4 -11l-82 -161h-97l-185 431h161l81 -215q2 -4 2.5 -8.5t2.5 -9.5q1 -5 3 -10l3 9q2 4 3 9t3 10l115 251l115 -251q2 -5 3.5 -10t3.5 -9q1 -4 2 -9q1 4 2 9q2 10 5 19l79 215h156z" />
    <glyph glyph-name="x" unicode="x" horiz-adv-x="486" 
d="M308 0l-44 73q-2 4 -5.5 10t-7.5 13t-9 16q-4 -6 -8 -13q-3 -6 -7 -13t-7 -12l-45 -74h-163l149 221l-133 210h164l37 -67q3 -7 6 -12t5 -10l5 -10q1 4 4 9q2 5 4.5 10.5t6.5 12.5l34 67h166l-135 -211l149 -220h-166z" />
    <glyph glyph-name="y" unicode="y" horiz-adv-x="482" 
d="M291 -96q-15 -43 -43.5 -69t-79.5 -26h-90v127h33q23 0 41 12t18 31q0 15 -3 29t-9 31l-148 392h163l59 -196q3 -10 5.5 -19t4.5 -17l4 -18q1 8 4 17q2 8 4.5 17.5t5.5 19.5l51 196h161z" />
    <glyph glyph-name="z" unicode="z" horiz-adv-x="475" 
d="M270 143l-6 -8l-6 -8q-4 -4 -7 -9q5 0 10 1q5 0 10 0.5t10 0.5h155v-120h-427l195 289q3 5 6 9t6 7q3 4 6 7q-4 -1 -8 -1h-18h-158v120h423z" />
    <glyph glyph-name="braceleft" unicode="{" horiz-adv-x="350" 
d="M326 -179q-111 18 -168.5 87t-57.5 180q0 31 -2 54.5t-10 40t-24 26.5t-44 14v116q28 4 44 14t24 26.5t10 40t2 55.5q0 111 57.5 180t168.5 87v-120q-17 -13 -29.5 -25.5t-20.5 -28t-12 -34.5t-4 -45q0 -41 -2.5 -72.5t-12 -56.5t-28 -44.5t-49.5 -34.5q31 -16 49.5 -35
t28 -44t12 -56.5t2.5 -71.5q0 -26 4 -45t12 -34.5t20.5 -28t29.5 -25.5v-120v0z" />
    <glyph glyph-name="bar" unicode="|" horiz-adv-x="282" 
d="M65 -179v909h152v-909h-152z" />
    <glyph glyph-name="braceright" unicode="}" horiz-adv-x="350" 
d="M330 224q-28 -5 -44 -15t-24 -26.5t-10 -40t-2 -54.5q0 -111 -57.5 -180t-168.5 -87v120q17 13 29.5 25.5t20.5 28t12 34.5t4 45q0 40 2.5 72t12 57t28 44.5t49.5 34.5q-32 16 -50 35t-27.5 44t-12 56.5t-2.5 71.5q0 26 -4 45t-12 34.5t-20.5 28t-29.5 25.5v120
q111 -18 168.5 -87t57.5 -180q0 -32 2 -55t10 -39.5t24 -26.5t44 -14v-116v0z" />
    <glyph glyph-name="asciitilde" unicode="~" horiz-adv-x="560" 
d="M520 474q0 -41 -8 -80t-24 -69.5t-41.5 -49t-59.5 -18.5q-31 0 -57 10.5t-49 24.5q-26 16 -46 30.5t-33 14.5q-16 0 -22 -24t-6 -53h-134q0 41 7.5 80t23 69t41 48.5t61.5 18.5q30 0 57.5 -11.5t50.5 -26.5q25 -15 44.5 -28.5t32.5 -13.5q16 0 22 24t6 54h134v0z" />
    <glyph glyph-name="exclamdown" unicode="&#xa1;" horiz-adv-x="306" 
d="M75 584v146h156v-146h-156zM75 0v269l23 261h110l23 -261v-269h-156z" />
    <glyph glyph-name="cent" unicode="&#xa2;" horiz-adv-x="465" 
d="M451 81q-35 -43 -72.5 -65t-88.5 -27v-68h-48v68q-47 3 -87 21.5t-69 48.5t-45 69.5t-16 85.5q0 45 16 84.5t45 70.5t68.5 50.5t87.5 22.5v53h48v-53q45 -5 81 -24t66 -55l-89 -83q-25 28 -58 36v-203q17 5 30 15t27 26l104 -73v0zM242 318q-33 -8 -53 -36t-20 -68
q0 -35 19.5 -64.5t53.5 -37.5v206z" />
    <glyph glyph-name="sterling" unicode="&#xa3;" horiz-adv-x="755" 
d="M702 155q0 -77 -35 -122t-93 -45q-48 0 -93 20.5t-89 46.5q-30 -32 -77.5 -49.5t-107.5 -17.5q-29 0 -58.5 8t-53 23t-38 37.5t-14.5 51.5t12.5 51.5t33 37.5t47 23t53.5 8q31 0 57.5 -3t49.5 -11q-4 20 -16 40.5t-26 37.5h-182v45h141q-11 12 -21.5 24t-21.5 25h-98v45
h68q-14 26 -22.5 55t-8.5 66q0 46 24 81.5t62.5 59.5t87 36.5t96.5 12.5q58 0 109 -13t89 -40t60.5 -69.5t22.5 -100.5h-162q0 54 -33.5 78.5t-85.5 24.5q-20 0 -38.5 -7t-33.5 -18.5t-24 -27t-9 -32.5q0 -32 13.5 -57t33.5 -49h214v-45h-176q21 -24 36 -49h140v-45h-117
q9 -24 14.5 -53t5.5 -65v-5q23 -11 43 -18.5t44 -7.5q25 0 33.5 11.5t8.5 28.5v31h135v-59v0zM285 119q-24 13 -46.5 20.5t-43.5 7.5q-19 0 -34.5 -8t-15.5 -31q0 -20 18 -28t38 -8q29 0 50.5 12.5t33.5 34.5z" />
    <glyph glyph-name="currency" unicode="&#xa4;" 
d="M240 608v122h250v-122h-250zM608 240v250h122v-250h-122zM240 240v250h250v-250h-250zM0 240v250h122v-250h-122zM240 0v122h250v-122h-250z" />
    <glyph glyph-name="yen" unicode="&#xa5;" horiz-adv-x="690" 
d="M425 301h143v-77h-145v-61h145v-77h-145v-86h-160v86h-143v77h143v61h-143v77h140l-245 429h182l134 -253q3 -6 5.5 -13t4.5 -13q2 -7 4 -13q1 6 4 13q3 12 10 26l133 253h183z" />
    <glyph glyph-name="brokenbar" unicode="&#xa6;" 
d="M240 608v122h250v-122h-250zM608 240v250h122v-250h-122zM240 240v250h250v-250h-250zM0 240v250h122v-250h-122zM240 0v122h250v-122h-250z" />
    <glyph glyph-name="section" unicode="&#xa7;" horiz-adv-x="714" 
d="M669 284q0 -31 -9.5 -57t-24.5 -47t-34.5 -37.5t-40.5 -29.5q20 -21 30.5 -50t10.5 -68q0 -41 -18 -75.5t-50 -59t-75.5 -38t-95.5 -13.5q-44 0 -80 5.5t-67 15.5t-58 24t-52 31l74 120q35 -25 83 -43t106 -18q40 0 58.5 12.5t18.5 29.5q0 10 -2.5 18t-11 15t-23.5 13.5
t-40 13.5l-147 41q-79 22 -127.5 64t-48.5 116q0 31 9.5 56.5t24.5 46.5t34.5 38t40.5 30q-20 21 -30.5 50t-10.5 68q0 41 18 75.5t50 59t75.5 38t95.5 13.5q44 0 80 -5.5t67 -15.5t58 -24t52 -31l-74 -120q-35 25 -83 43t-106 18q-40 0 -58.5 -12.5t-18.5 -29.5
q0 -10 2.5 -18t11 -15t23.5 -13.5t40 -13.5l147 -41q79 -22 127.5 -64t48.5 -116zM514 259q0 16 -5 27.5t-17 20.5t-32.5 17t-50.5 16l-134 37q-31 -20 -53 -41.5t-22 -43.5q0 -16 5 -27.5t17 -20.5t32.5 -17t50.5 -16l134 -37q31 20 53 41.5t22 43.5z" />
    <glyph glyph-name="dieresis" unicode="&#xa8;" horiz-adv-x="500" 
d="M294 495v130h126v-130h-126zM80 495v130h126v-130h-126z" />
    <glyph glyph-name="copyright" unicode="&#xa9;" horiz-adv-x="844" 
d="M799 365q0 -78 -29.5 -146.5t-81 -120t-120 -81t-146.5 -29.5t-146.5 29.5t-120 81t-81 120t-29.5 146.5t29.5 146.5t81 120t120 81t146.5 29.5t146.5 -29.5t120 -81t81 -120t29.5 -146.5zM738 364q0 66 -25 123.5t-67.5 100t-100 67.5t-123.5 25t-123.5 -25t-100 -67.5
t-67.5 -100t-25 -123.5t25 -123t67.5 -100t100 -67.5t123.5 -24.5t123.5 24.5t100 67.5t67.5 100t25 123zM597 223q-26 -35 -70.5 -58.5t-102.5 -23.5q-40 0 -78.5 15.5t-69 45.5t-49 73.5t-18.5 99.5q0 44 16 83.5t45 69.5t69 48t87 18q60 0 98 -18.5t64 -50.5l-70 -65
q-20 19 -38 27t-52 8q-29 0 -51 -10.5t-36.5 -28t-22 -39t-7.5 -42.5q0 -30 10 -55t26 -43t37 -27.5t42 -9.5q37 0 59.5 10t43.5 34l68 -61v0z" />
    <glyph glyph-name="ordfeminine" unicode="&#xaa;" horiz-adv-x="451" 
d="M291 400v24q-44 -34 -104 -34q-63 0 -93.5 33t-30.5 79q0 30 14 52.5t38 38t57 23.5t71 8h50q0 25 -14.5 34.5t-51.5 9.5q-32 0 -56.5 -4t-46.5 -14l-26 67q23 13 57.5 19t62.5 6q82 0 120.5 -27.5t38.5 -81.5v-233h-86zM63 255v81h314v-81h-314zM291 552h-53
q-38 0 -62 -11.5t-24 -38.5q0 -18 16 -26.5t40 -8.5q26 0 43 5.5t40 21.5v58z" />
    <glyph glyph-name="guillemotleft" unicode="&#xab;" horiz-adv-x="450" 
d="M248 152v136l152 111v-131l-65 -48l65 -48v-131zM40 152v136l152 111v-131l-65 -48l65 -48v-131z" />
    <glyph glyph-name="logicalnot" unicode="&#xac;" 
d="M240 608v122h250v-122h-250zM608 240v250h122v-250h-122zM240 240v250h250v-250h-250zM0 240v250h122v-250h-122zM240 0v122h250v-122h-250z" />
    <glyph glyph-name="minus" unicode="&#xad;" 
d="M240 608v122h250v-122h-250zM608 240v250h122v-250h-122zM240 240v250h250v-250h-250zM0 240v250h122v-250h-122zM240 0v122h250v-122h-250z" />
    <glyph glyph-name="registered" unicode="&#xae;" horiz-adv-x="844" 
d="M799 365q0 -78 -29.5 -146.5t-81 -120t-120 -81t-146.5 -29.5t-146.5 29.5t-120 81t-81 120t-29.5 146.5t29.5 146.5t81 120t120 81t146.5 29.5t146.5 -29.5t120 -81t81 -120t29.5 -146.5zM738 364q0 66 -25 123.5t-67.5 100t-100 67.5t-123.5 25t-123.5 -25t-100 -67.5
t-67.5 -100t-25 -123.5t25 -123t67.5 -100t100 -67.5t123.5 -24.5t123.5 24.5t100 67.5t67.5 100t25 123zM499 155l-119 190v-190h-100v438h172q30 0 56 -10t44.5 -27.5t29 -41t10.5 -50.5q0 -53 -27.5 -86t-72.5 -41l122 -182h-115zM490 461q0 23 -16 36t-40 13h-54v-109
h52q26 0 42 15.5t16 44.5z" />
    <glyph glyph-name="macron" unicode="&#xaf;" horiz-adv-x="500" 
d="M100 525v66h300v-66h-300z" />
    <glyph glyph-name="degree" unicode="&#xb0;" horiz-adv-x="426" 
d="M401 554q0 -39 -15 -73.5t-40.5 -60t-59.5 -40t-73 -14.5t-73.5 14.5t-60 40t-40 60t-14.5 73.5t14.5 73t40 59.5t60 40.5t73.5 15t73 -15t59.5 -40.5t40.5 -59.5t15 -73zM307 554q0 19 -7.5 36t-20.5 30t-30 20.5t-36 7.5t-36 -7.5t-30 -20.5t-20.5 -30t-7.5 -36
t7.5 -36t20.5 -30t30 -20.5t36 -7.5t36 7.5t30 20.5t20.5 30t7.5 36z" />
    <glyph glyph-name="plusminus" unicode="&#xb1;" horiz-adv-x="844" 
d="M639 0v730h155v-730h-155zM511 316v-316h-155v316h-54v115h54v178q0 60 31.5 96.5t94.5 36.5h81v-130h-25q-8 0 -13 -5t-8 -12.5t-4.5 -16t-1.5 -15.5v-132h57v-115h-57zM226 316v-316h-155v316h-54v115h54v178q0 60 31.5 96.5t94.5 36.5h81v-130h-25q-8 0 -13 -5
t-8 -12.5t-4.5 -16t-1.5 -15.5v-132h57v-115h-57z" />
    <glyph glyph-name="twosuperior" unicode="&#xb2;" 
d="M240 608v122h250v-122h-250zM608 240v250h122v-250h-122zM240 240v250h250v-250h-250zM0 240v250h122v-250h-122zM240 0v122h250v-122h-250z" />
    <glyph glyph-name="threesuperior" unicode="&#xb3;" 
d="M240 608v122h250v-122h-250zM608 240v250h122v-250h-122zM240 240v250h250v-250h-250zM0 240v250h122v-250h-122zM240 0v122h250v-122h-250z" />
    <glyph glyph-name="acute" unicode="&#xb4;" horiz-adv-x="500" 
d="M271 495h-111l77 167h143z" />
    <glyph glyph-name="mu" unicode="&#xb5;" 
d="M240 608v122h250v-122h-250zM608 240v250h122v-250h-122zM240 240v250h250v-250h-250zM0 240v250h122v-250h-122zM240 0v122h250v-122h-250z" />
    <glyph glyph-name="paragraph" unicode="&#xb6;" horiz-adv-x="790" 
d="M582 -179v775h-74v-775h-133v386h-89q-60 0 -108 22.5t-81.5 58.5t-51.5 82.5t-18 94.5q0 52 18 100t53.5 84.5t87.5 58.5t120 22h409v-909h-133zM375 596h-64q-65 0 -98.5 -34t-33.5 -91q0 -58 33 -94t93 -36h70v255z" />
    <glyph glyph-name="periodcentered" unicode="&#xb7;" horiz-adv-x="250" 
d="M50 276v151h150v-151h-150z" />
    <glyph glyph-name="periodcentered" unicode="&#x2219;" horiz-adv-x="250" 
d="M50 276v151h150v-151h-150z" />
    <glyph glyph-name="cedilla" unicode="&#xb8;" horiz-adv-x="500" 
d="M350 -91q0 -20 -9.5 -36.5t-25 -28t-35 -17.5t-40.5 -6q-31 0 -57 9t-47 23l32 43q31 -20 69 -20q14 0 24 6.5t10 20.5q0 12 -10.5 15.5t-22.5 3.5q-8 0 -19 -1t-19 -4l-21 34l48 63h66l-33 -42q41 2 65.5 -16.5t24.5 -46.5z" />
    <glyph glyph-name="onesuperior" unicode="&#xb9;" 
d="M240 608v122h250v-122h-250zM608 240v250h122v-250h-122zM240 240v250h250v-250h-250zM0 240v250h122v-250h-122zM240 0v122h250v-122h-250z" />
    <glyph glyph-name="ordmasculine" unicode="&#xba;" horiz-adv-x="486" 
d="M418 572q0 -38 -13.5 -71t-37 -58t-55.5 -39t-70 -14q-37 0 -69 12.5t-55.5 36t-37 56.5t-13.5 74q0 33 12.5 64.5t35 55.5t54.5 38.5t71 14.5t71.5 -14t56.5 -37.5t37 -54t13 -64.5zM67 255v81h351v-81h-351zM324 567q0 42 -23.5 65t-60.5 23q-35 0 -57 -25.5t-22 -60.5
q0 -43 21.5 -67t56.5 -24q44 0 64.5 25.5t20.5 63.5z" />
    <glyph glyph-name="guillemotright" unicode="&#xbb;" horiz-adv-x="450" 
d="M258 41v131l65 48l-65 48v131l152 -111v-136zM50 41v131l65 48l-65 48v131l152 -111v-136z" />
    <glyph glyph-name="onequarter" unicode="&#xbc;" 
d="M240 608v122h250v-122h-250zM608 240v250h122v-250h-122zM240 240v250h250v-250h-250zM0 240v250h122v-250h-122zM240 0v122h250v-122h-250z" />
    <glyph glyph-name="onehalf" unicode="&#xbd;" 
d="M240 608v122h250v-122h-250zM608 240v250h122v-250h-122zM240 240v250h250v-250h-250zM0 240v250h122v-250h-122zM240 0v122h250v-122h-250z" />
    <glyph glyph-name="threequarters" unicode="&#xbe;" 
d="M240 608v122h250v-122h-250zM608 240v250h122v-250h-122zM240 240v250h250v-250h-250zM0 240v250h122v-250h-122zM240 0v122h250v-122h-250z" />
    <glyph glyph-name="questiondown" unicode="&#xbf;" horiz-adv-x="460" 
d="M185 584v146h156v-146h-156zM445 69q-38 -40 -85 -60.5t-108 -20.5q-49 0 -90 13.5t-71 38t-46.5 59t-16.5 76.5q0 28 8.5 54t22.5 50t31.5 46.5t35.5 43.5q29 36 47 70.5t18 72.5v23h144v-23q0 -52 -19 -95t-49 -81q-15 -20 -30 -38.5t-27 -36.5t-19.5 -35t-7.5 -33
q0 -32 20 -55.5t49 -23.5q39 0 63.5 16.5t47.5 39.5l82 -101v0z" />
    <glyph glyph-name="Agrave" unicode="&#xc0;" horiz-adv-x="710" 
d="M519 0l-56 184h-222l-57 -184h-169l261 730h154l265 -730h-176zM369 497q-7 22 -11 39q-3 10 -5 20q-2 -9 -5 -19q-2 -8 -4.5 -19t-5.5 -21l-55 -178h140zM298 790l-109 167h143l77 -167h-111z" />
    <glyph glyph-name="Aacute" unicode="&#xc1;" horiz-adv-x="710" 
d="M519 0l-56 184h-222l-57 -184h-169l261 730h154l265 -730h-176zM369 497q-7 22 -11 39q-3 10 -5 20q-2 -9 -5 -19q-2 -8 -4.5 -19t-5.5 -21l-55 -178h140zM411 790h-111l77 167h143z" />
    <glyph glyph-name="Acircumflex" unicode="&#xc2;" horiz-adv-x="710" 
d="M519 0l-56 184h-222l-57 -184h-169l261 730h154l265 -730h-176zM369 497q-7 22 -11 39q-3 10 -5 20q-2 -9 -5 -19q-2 -8 -4.5 -19t-5.5 -21l-55 -178h140zM397 790l-45 70l-45 -70h-111l103 147h108l103 -147h-113z" />
    <glyph glyph-name="Atilde" unicode="&#xc3;" horiz-adv-x="710" 
d="M519 0l-56 184h-222l-57 -184h-169l261 730h154l265 -730h-176zM369 497q-7 22 -11 39q-3 10 -5 20q-2 -9 -5 -19q-2 -8 -4.5 -19t-5.5 -21l-55 -178h140zM540 912q0 -58 -34 -91t-94 -33q-17 0 -34.5 6t-34.5 13q-17 8 -32 13.5t-27 5.5q-17 0 -29 -8t-12 -28h-83
q0 57 34 90.5t94 33.5q17 0 34.5 -6t34.5 -14q17 -7 31.5 -12.5t27.5 -5.5q17 0 29 8t12 28h83v0z" />
    <glyph glyph-name="Adieresis" unicode="&#xc4;" horiz-adv-x="710" 
d="M540 590v140h126v-140h-126zM40 590v140h126v-140h-126zM519 0l-56 184h-222l-57 -184h-169l261 730h154l265 -730h-176zM369 497q-7 22 -11 39q-3 10 -5 20q-2 -9 -5 -19q-2 -8 -4.5 -19t-5.5 -21l-55 -178h140z" />
    <glyph glyph-name="Aring" unicode="&#xc5;" horiz-adv-x="710" 
d="M519 0l-56 184h-222l-57 -184h-169l256 716q-21 18 -34 43.5t-13 54.5q0 26 10.5 49.5t28 41t41 28t49.5 10.5t49.5 -10.5t41 -28t28 -41t10.5 -49.5q0 -29 -13 -54.5t-34 -43.5l260 -716h-176zM406 814q0 23 -15 38t-38 15t-38 -15t-15 -38t15 -38t38 -15t38 15t15 38z
M369 497q-7 22 -11 39q-3 10 -5 20q-2 -9 -5 -19q-2 -8 -4.5 -19t-5.5 -21l-55 -178h140z" />
    <glyph glyph-name="AE" unicode="&#xc6;" horiz-adv-x="953" 
d="M471 0v189h-203l-98 -189h-160l378 730h493v-135h-265v-171h246v-135h-246v-154h280v-135h-425zM471 596l-141 -277h141v277z" />
    <glyph glyph-name="Ccedilla" unicode="&#xc7;" horiz-adv-x="720" 
d="M689 106q-51 -55 -116 -86.5t-159 -31.5l-13 -16q41 2 65.5 -16.5t24.5 -46.5q0 -20 -9.5 -36.5t-25 -28t-35 -17.5t-40.5 -6q-31 0 -57 9t-47 23l32 43q31 -20 69 -20q14 0 24 6.5t10 20.5q0 12 -10.5 15.5t-22.5 3.5q-8 0 -19 -1t-19 -4l-21 34l31 41q-71 9 -128 39.5
t-98 79t-63 113.5t-22 145q0 82 29 150.5t79 118t117.5 77t144.5 27.5q81 0 143.5 -25t119.5 -83l-90 -105q-73 73 -173 73q-47 0 -85 -17.5t-64.5 -48.5t-41 -74t-14.5 -93q0 -113 53 -177t155 -64q34 0 60.5 7t48 18t39.5 26t36 32l92 -105v0z" />
    <glyph glyph-name="Egrave" unicode="&#xc8;" horiz-adv-x="572" 
d="M75 0v730h425v-135h-265v-171h246v-135h-246v-154h280v-135h-440zM250 790l-109 167h143l77 -167h-111z" />
    <glyph glyph-name="Eacute" unicode="&#xc9;" horiz-adv-x="572" 
d="M75 0v730h425v-135h-265v-171h246v-135h-246v-154h280v-135h-440zM319 790h-111l77 167h143z" />
    <glyph glyph-name="Ecircumflex" unicode="&#xca;" horiz-adv-x="572" 
d="M75 0v730h425v-135h-265v-171h246v-135h-246v-154h280v-135h-440zM328 790l-45 70l-45 -70h-111l103 147h108l103 -147h-113z" />
    <glyph glyph-name="Edieresis" unicode="&#xcb;" horiz-adv-x="572" 
d="M75 0v730h425v-135h-265v-171h246v-135h-246v-154h280v-135h-440zM327 790v130h126v-130h-126zM113 790v130h126v-130h-126z" />
    <glyph glyph-name="Igrave" unicode="&#xcc;" horiz-adv-x="310" 
d="M75 0v730h160v-730h-160zM104 790l-109 167h143l77 -167h-111z" />
    <glyph glyph-name="Iacute" unicode="&#xcd;" horiz-adv-x="310" 
d="M75 0v730h160v-730h-160zM210 790h-111l77 167h143z" />
    <glyph glyph-name="Icircumflex" unicode="&#xce;" horiz-adv-x="310" 
d="M75 0v730h160v-730h-160zM200 790l-45 70l-45 -70h-111l103 147h108l103 -147h-113z" />
    <glyph glyph-name="Idieresis" unicode="&#xcf;" horiz-adv-x="310" 
d="M75 0v730h160v-730h-160zM200 790v130h126v-130h-126zM-14 790v130h126v-130h-126z" />
    <glyph glyph-name="Eth" unicode="&#xd0;" horiz-adv-x="746" 
d="M706 366q0 -90 -32 -158.5t-85 -114.5t-121.5 -69.5t-141.5 -23.5h-221v289h-80v132h80v309h221q78 0 147 -23.5t121 -70t82 -114.5t30 -156zM541 366q0 48 -15.5 90t-44 72.5t-68 48.5t-87.5 18h-61v-174h110v-132h-110v-154h61q51 0 91 19t67.5 50.5t42 73.5t14.5 88z
" />
    <glyph glyph-name="Ntilde" unicode="&#xd1;" horiz-adv-x="786" 
d="M573 0l-322 425q-4 5 -7.5 10t-5.5 10l-5 10q0 -6 1 -12q0 -5 0.5 -11.5t0.5 -13.5v-418h-160v730h138l322 -421q4 -5 7.5 -10t5.5 -10l5 -10q-1 6 -1 12q-1 5 -1 11.5v13.5v414h160v-730h-138zM577 912q0 -58 -34 -91t-94 -33q-17 0 -34.5 6t-34.5 13q-17 8 -32 13.5
t-27 5.5q-17 0 -29 -8t-12 -28h-83q0 57 34 90.5t94 33.5q17 0 34.5 -6t34.5 -14q17 -7 31.5 -12.5t27.5 -5.5q17 0 29 8t12 28h83v0z" />
    <glyph glyph-name="Ograve" unicode="&#xd2;" horiz-adv-x="832" 
d="M792 368q0 -79 -27 -148.5t-76.5 -121t-119 -81t-154.5 -29.5t-154 30t-118 82t-76 121t-27 147q0 79 27 147t76.5 118.5t119 79.5t154.5 29t154.5 -28t118.5 -77.5t75.5 -118.5t26.5 -150zM627 368q0 48 -15 90.5t-42.5 74.5t-66 50.5t-86.5 18.5q-47 0 -86 -19.5
t-67 -52t-43.5 -74.5t-15.5 -88q0 -50 17 -94t45.5 -76.5t66.5 -51t81 -18.5q49 0 88.5 20t67 53.5t42 77t14.5 89.5zM361 790l-109 167h143l77 -167h-111z" />
    <glyph glyph-name="Oacute" unicode="&#xd3;" horiz-adv-x="832" 
d="M792 368q0 -79 -27 -148.5t-76.5 -121t-119 -81t-154.5 -29.5t-154 30t-118 82t-76 121t-27 147q0 79 27 147t76.5 118.5t119 79.5t154.5 29t154.5 -28t118.5 -77.5t75.5 -118.5t26.5 -150zM627 368q0 48 -15 90.5t-42.5 74.5t-66 50.5t-86.5 18.5q-47 0 -86 -19.5
t-67 -52t-43.5 -74.5t-15.5 -88q0 -50 17 -94t45.5 -76.5t66.5 -51t81 -18.5q49 0 88.5 20t67 53.5t42 77t14.5 89.5zM447 790h-111l77 167h143z" />
    <glyph glyph-name="Ocircumflex" unicode="&#xd4;" horiz-adv-x="832" 
d="M792 368q0 -79 -27 -148.5t-76.5 -121t-119 -81t-154.5 -29.5t-154 30t-118 82t-76 121t-27 147q0 79 27 147t76.5 118.5t119 79.5t154.5 29t154.5 -28t118.5 -77.5t75.5 -118.5t26.5 -150zM627 368q0 48 -15 90.5t-42.5 74.5t-66 50.5t-86.5 18.5q-47 0 -86 -19.5
t-67 -52t-43.5 -74.5t-15.5 -88q0 -50 17 -94t45.5 -76.5t66.5 -51t81 -18.5q49 0 88.5 20t67 53.5t42 77t14.5 89.5zM460 790l-45 70l-45 -70h-111l103 147h108l103 -147h-113z" />
    <glyph glyph-name="Otilde" unicode="&#xd5;" horiz-adv-x="832" 
d="M792 368q0 -79 -27 -148.5t-76.5 -121t-119 -81t-154.5 -29.5t-154 30t-118 82t-76 121t-27 147q0 79 27 147t76.5 118.5t119 79.5t154.5 29t154.5 -28t118.5 -77.5t75.5 -118.5t26.5 -150zM627 368q0 48 -15 90.5t-42.5 74.5t-66 50.5t-86.5 18.5q-47 0 -86 -19.5
t-67 -52t-43.5 -74.5t-15.5 -88q0 -50 17 -94t45.5 -76.5t66.5 -51t81 -18.5q49 0 88.5 20t67 53.5t42 77t14.5 89.5zM603 912q0 -58 -34 -91t-94 -33q-17 0 -34.5 6t-34.5 13q-17 8 -32 13.5t-27 5.5q-17 0 -29 -8t-12 -28h-83q0 57 34 90.5t94 33.5q17 0 34.5 -6t34.5 -14
q17 -7 31.5 -12.5t27.5 -5.5q17 0 29 8t12 28h83v0z" />
    <glyph glyph-name="Odieresis" unicode="&#xd6;" horiz-adv-x="832" 
d="M792 368q0 -79 -27 -148.5t-76.5 -121t-119 -81t-154.5 -29.5t-154 30t-118 82t-76 121t-27 147q0 66 19.5 125t55.5 107h-75v130h126v-75q49 41 112 64t139 23t138.5 -22t110.5 -62v72h126v-130h-71q35 -47 53 -105.5t18 -126.5zM627 368q0 46 -15 88t-43 74.5t-66.5 52
t-85.5 19.5t-86 -19.5t-67 -52t-43.5 -74.5t-15.5 -88q0 -49 17 -92.5t45.5 -76.5t67 -52t80.5 -19q49 0 88.5 20t67 53.5t42 77t14.5 89.5z" />
    <glyph glyph-name="multiply" unicode="&#xd7;" 
d="M240 608v122h250v-122h-250zM608 240v250h122v-250h-122zM240 240v250h250v-250h-250zM0 240v250h122v-250h-122zM240 0v122h250v-122h-250z" />
    <glyph glyph-name="Oslash" unicode="&#xd8;" horiz-adv-x="832" 
d="M720 602q35 -48 53.5 -106.5t18.5 -127.5q0 -79 -27 -148.5t-76.5 -121t-119 -81t-154.5 -29.5q-72 0 -132.5 22t-108.5 61l-74 -73l-59 56l77 75q-38 49 -58 110t-20 129q0 79 27 147t76.5 118.5t119 79.5t154.5 29q75 0 136.5 -21.5t109.5 -60.5l74 72l61 -54zM550 550
q-26 24 -59.5 38t-73.5 14q-47 0 -86 -19.5t-67 -52t-43.5 -74.5t-15.5 -88q0 -34 8.5 -65t22.5 -59l314 306v0zM627 368q0 62 -28 116l-313 -304q28 -25 60.5 -38.5t68.5 -13.5q49 0 88.5 20t67 53.5t42 77t14.5 89.5z" />
    <glyph glyph-name="Ugrave" unicode="&#xd9;" horiz-adv-x="772" 
d="M702 296q0 -75 -26 -132.5t-70 -96.5t-102 -59t-122 -20q-63 0 -119.5 20t-99.5 59t-68 96.5t-25 132.5v434h161v-434q0 -37 11 -68.5t31.5 -54t48 -35t60.5 -12.5q34 0 63 12.5t51 35t34.5 54t12.5 68.5v434h159v-434v0zM348 780l-109 167h143l77 -167h-111z" />
    <glyph glyph-name="Uacute" unicode="&#xda;" horiz-adv-x="772" 
d="M702 296q0 -75 -26 -132.5t-70 -96.5t-102 -59t-122 -20q-63 0 -119.5 20t-99.5 59t-68 96.5t-25 132.5v434h161v-434q0 -37 11 -68.5t31.5 -54t48 -35t60.5 -12.5q34 0 63 12.5t51 35t34.5 54t12.5 68.5v434h159v-434v0zM426 780h-111l77 167h143z" />
    <glyph glyph-name="Ucircumflex" unicode="&#xdb;" horiz-adv-x="772" 
d="M702 296q0 -75 -26 -132.5t-70 -96.5t-102 -59t-122 -20q-63 0 -119.5 20t-99.5 59t-68 96.5t-25 132.5v434h161v-434q0 -37 11 -68.5t31.5 -54t48 -35t60.5 -12.5q34 0 63 12.5t51 35t34.5 54t12.5 68.5v434h159v-434v0zM431 790l-45 70l-45 -70h-111l103 147h108
l103 -147h-113z" />
    <glyph glyph-name="Udieresis" unicode="&#xdc;" horiz-adv-x="772" 
d="M412 570v160h81v-160h-81zM281 570v160h81v-160h-81zM702 296q0 -75 -26 -132.5t-70 -96.5t-102 -59t-122 -20q-63 0 -119.5 20t-99.5 59t-68 96.5t-25 132.5v434h161v-434q0 -37 11 -68.5t31.5 -54t48 -35t60.5 -12.5q34 0 63 12.5t51 35t34.5 54t12.5 68.5v434h159
v-434v0z" />
    <glyph glyph-name="Yacute" unicode="&#xdd;" horiz-adv-x="690" 
d="M423 296v-296h-160v296l-248 434h182l134 -253q3 -6 5.5 -13t4.5 -13q2 -7 4 -13q1 6 4 13q3 12 10 26l133 253h183zM389 790h-111l77 167h143z" />
    <glyph glyph-name="Thorn" unicode="&#xde;" horiz-adv-x="609" 
d="M584 378q0 -52 -18.5 -93.5t-53 -71t-84 -45t-111.5 -15.5h-82v-153h-160v730h160v-137h82q61 0 110.5 -14.5t84 -42t53.5 -67.5t19 -91zM424 375q0 45 -26.5 64t-80.5 19h-82v-170h82q107 0 107 87z" />
    <glyph glyph-name="germandbls" unicode="&#xdf;" horiz-adv-x="553" 
d="M528 204q0 -48 -15.5 -88t-43 -68.5t-66.5 -44t-87 -15.5q-15 0 -31 3t-28 7v121q17 -8 49 -8q40 0 55.5 24t15.5 69q0 24 -7 49.5t-22.5 48t-40 39.5t-60.5 25v90q45 0 69 25.5t24 63.5q0 74 -66 74q-20 0 -33 -6t-21 -16t-11.5 -21.5t-3.5 -23.5v-552h-155v553
q0 42 18 77t49 59.5t72.5 38.5t88.5 14t86.5 -13t67.5 -37t43.5 -57.5t15.5 -74.5q0 -54 -27.5 -92.5t-69.5 -55.5q24 -9 48 -25t43 -41t31 -59.5t12 -82.5z" />
    <glyph glyph-name="agrave" unicode="&#xe0;" horiz-adv-x="529" 
d="M327 0v33q-18 -12 -33 -21t-31.5 -14t-36.5 -7.5t-48 -2.5q-31 0 -59.5 9.5t-50 27t-34 42t-12.5 55.5q0 50 28 81.5t72 49.5t98 25.5t107 9.5v15q0 23 -15.5 31.5t-48.5 8.5q-45 0 -82.5 -10t-71.5 -27l-48 93q43 24 95.5 34t111.5 10q107 0 160.5 -38.5t53.5 -130.5
v-274h-155zM327 201q-25 0 -50 -3t-45 -10.5t-32.5 -19.5t-12.5 -30q0 -19 15.5 -29.5t34.5 -10.5q29 0 50 7t40 24v72zM228 495l-109 167h143l77 -167h-111z" />
    <glyph glyph-name="aacute" unicode="&#xe1;" horiz-adv-x="529" 
d="M327 0v33q-18 -12 -33 -21t-31.5 -14t-36.5 -7.5t-48 -2.5q-31 0 -59.5 9.5t-50 27t-34 42t-12.5 55.5q0 50 28 81.5t72 49.5t98 25.5t107 9.5v15q0 23 -15.5 31.5t-48.5 8.5q-45 0 -82.5 -10t-71.5 -27l-48 93q43 24 95.5 34t111.5 10q107 0 160.5 -38.5t53.5 -130.5
v-274h-155zM327 201q-25 0 -50 -3t-45 -10.5t-32.5 -19.5t-12.5 -30q0 -19 15.5 -29.5t34.5 -10.5q29 0 50 7t40 24v72zM308 495h-111l77 167h143z" />
    <glyph glyph-name="acircumflex" unicode="&#xe2;" horiz-adv-x="529" 
d="M327 0v33q-18 -12 -33 -21t-31.5 -14t-36.5 -7.5t-48 -2.5q-31 0 -59.5 9.5t-50 27t-34 42t-12.5 55.5q0 50 28 81.5t72 49.5t98 25.5t107 9.5v15q0 23 -15.5 31.5t-48.5 8.5q-45 0 -82.5 -10t-71.5 -27l-48 93q43 24 95.5 34t111.5 10q107 0 160.5 -38.5t53.5 -130.5
v-274h-155zM327 201q-25 0 -50 -3t-45 -10.5t-32.5 -19.5t-12.5 -30q0 -19 15.5 -29.5t34.5 -10.5q29 0 50 7t40 24v72zM309 495l-45 70l-45 -70h-111l103 147h108l103 -147h-113z" />
    <glyph glyph-name="atilde" unicode="&#xe3;" horiz-adv-x="529" 
d="M327 0v33q-18 -12 -33 -21t-31.5 -14t-36.5 -7.5t-48 -2.5q-31 0 -59.5 9.5t-50 27t-34 42t-12.5 55.5q0 50 28 81.5t72 49.5t98 25.5t107 9.5v15q0 23 -15.5 31.5t-48.5 8.5q-45 0 -82.5 -10t-71.5 -27l-48 93q43 24 95.5 34t111.5 10q107 0 160.5 -38.5t53.5 -130.5
v-274h-155zM327 201q-25 0 -50 -3t-45 -10.5t-32.5 -19.5t-12.5 -30q0 -19 15.5 -29.5t34.5 -10.5q29 0 50 7t40 24v72zM460 617q0 -58 -34 -91t-94 -33q-17 0 -34.5 6t-34.5 13q-17 8 -32 13.5t-27 5.5q-17 0 -29 -8t-12 -28h-83q0 57 34 90.5t94 33.5q17 0 34.5 -6
t34.5 -14q17 -7 31.5 -12.5t27.5 -5.5q17 0 29 8t12 28h83v0z" />
    <glyph glyph-name="adieresis" unicode="&#xe4;" horiz-adv-x="529" 
d="M327 0v33q-18 -12 -33 -21t-31.5 -14t-36.5 -7.5t-48 -2.5q-31 0 -59.5 9.5t-50 27t-34 42t-12.5 55.5q0 50 28 81.5t72 49.5t98 25.5t107 9.5v15q0 23 -15.5 31.5t-48.5 8.5q-45 0 -82.5 -10t-71.5 -27l-48 93q43 24 95.5 34t111.5 10q107 0 160.5 -38.5t53.5 -130.5
v-274h-155zM327 201q-25 0 -50 -3t-45 -10.5t-32.5 -19.5t-12.5 -30q0 -19 15.5 -29.5t34.5 -10.5q29 0 50 7t40 24v72zM310 495v130h126v-130h-126zM96 495v130h126v-130h-126z" />
    <glyph glyph-name="aring" unicode="&#xe5;" horiz-adv-x="529" 
d="M327 0v33q-18 -12 -33 -21t-31.5 -14t-36.5 -7.5t-48 -2.5q-31 0 -59.5 9.5t-50 27t-34 42t-12.5 55.5q0 50 28 81.5t72 49.5t98 25.5t107 9.5v15q0 23 -15.5 31.5t-48.5 8.5q-45 0 -82.5 -10t-71.5 -27l-48 93q43 24 95.5 34t111.5 10q107 0 160.5 -38.5t53.5 -130.5
v-274h-155zM327 201q-25 0 -50 -3t-45 -10.5t-32.5 -19.5t-12.5 -30q0 -19 15.5 -29.5t34.5 -10.5q29 0 50 7t40 24v72zM397 617q0 -26 -10.5 -49.5t-28 -41t-41 -28t-49.5 -10.5t-49.5 10.5t-41 28t-28 41t-10.5 49.5t10.5 49.5t28 41t41 28t49.5 10.5t49.5 -10.5t41 -28
t28 -41t10.5 -49.5zM321 617q0 23 -15 38t-38 15t-38 -15t-15 -38t15 -38t38 -15t38 15t15 38z" />
    <glyph glyph-name="ae" unicode="&#xe6;" horiz-adv-x="802" 
d="M775 60q-49 -41 -100 -56.5t-110 -15.5q-57 0 -109 19.5t-86 61.5q-23 -22 -43 -37.5t-42 -25t-48 -14t-59 -4.5q-31 0 -59.5 9.5t-50 27t-34 42t-12.5 55.5q0 50 28.5 81.5t73.5 49.5t99.5 25.5t107.5 9.5v15q0 23 -17.5 31.5t-50.5 8.5q-45 0 -82.5 -10t-71.5 -27
l-48 93q43 24 95.5 34t111.5 10q49 0 88.5 -10t62.5 -32q23 19 55 30.5t66 11.5q51 0 93.5 -17.5t73 -50.5t47 -80t16.5 -106h-306q3 -37 29 -64t72 -27q51 0 83.5 11.5t60.5 34.5l66 -84v0zM611 271q-3 33 -22.5 52.5t-50.5 19.5q-33 0 -50.5 -20t-22.5 -52h146v0zM331 201
q-25 0 -50.5 -3t-46.5 -10.5t-34 -19.5t-13 -30q0 -19 15.5 -29.5t34.5 -10.5q29 0 52 7t42 24v72z" />
    <glyph glyph-name="ccedilla" unicode="&#xe7;" horiz-adv-x="462" 
d="M451 81q-38 -47 -78.5 -69t-99.5 -24l-13 -16q41 2 65.5 -16.5t24.5 -46.5q0 -20 -9.5 -36.5t-25 -28t-35 -17.5t-40.5 -6q-31 0 -57 9t-47 23l32 43q31 -20 69 -20q14 0 24 6.5t10 20.5q0 12 -10.5 15.5t-22.5 3.5q-8 0 -19 -1t-19 -4l-21 34l32 42q-41 8 -75 28t-59 49
t-38.5 65.5t-13.5 78.5q0 47 17.5 88.5t49 73t75 49.5t95.5 18q55 0 97.5 -19t77.5 -61l-89 -83q-37 40 -86 40q-42 0 -67.5 -30t-25.5 -76q0 -20 6.5 -38.5t19 -33t29.5 -23.5t38 -9q30 0 48.5 11.5t36.5 32.5l104 -73v0z" />
    <glyph glyph-name="egrave" unicode="&#xe8;" horiz-adv-x="504" 
d="M477 60q-49 -41 -100 -56.5t-110 -15.5q-47 0 -91 13t-77.5 41t-53.5 71.5t-20 105.5q0 54 17 95.5t46 70t69 43.5t85 15q51 0 93.5 -17.5t73 -50.5t47 -80t16.5 -106h-302q4 -38 27.5 -64.5t69.5 -26.5q51 0 83.5 11.5t60.5 34.5l66 -84v0zM313 271q-3 33 -22.5 52.5
t-50.5 19.5q-33 0 -48 -20.5t-21 -51.5h142v0zM203 495l-109 167h143l77 -167h-111z" />
    <glyph glyph-name="eacute" unicode="&#xe9;" horiz-adv-x="504" 
d="M477 60q-49 -41 -100 -56.5t-110 -15.5q-47 0 -91 13t-77.5 41t-53.5 71.5t-20 105.5q0 54 17 95.5t46 70t69 43.5t85 15q51 0 93.5 -17.5t73 -50.5t47 -80t16.5 -106h-302q4 -38 27.5 -64.5t69.5 -26.5q51 0 83.5 11.5t60.5 34.5l66 -84v0zM313 271q-3 33 -22.5 52.5
t-50.5 19.5q-33 0 -48 -20.5t-21 -51.5h142v0zM298 495h-111l77 167h143z" />
    <glyph glyph-name="ecircumflex" unicode="&#xea;" horiz-adv-x="504" 
d="M477 60q-49 -41 -100 -56.5t-110 -15.5q-47 0 -91 13t-77.5 41t-53.5 71.5t-20 105.5q0 54 17 95.5t46 70t69 43.5t85 15q51 0 93.5 -17.5t73 -50.5t47 -80t16.5 -106h-302q4 -38 27.5 -64.5t69.5 -26.5q51 0 83.5 11.5t60.5 34.5l66 -84v0zM313 271q-3 33 -22.5 52.5
t-50.5 19.5q-33 0 -48 -20.5t-21 -51.5h142v0zM289 495l-45 70l-45 -70h-111l103 147h108l103 -147h-113z" />
    <glyph glyph-name="edieresis" unicode="&#xeb;" horiz-adv-x="504" 
d="M477 60q-49 -41 -100 -56.5t-110 -15.5q-47 0 -91 13t-77.5 41t-53.5 71.5t-20 105.5q0 54 17 95.5t46 70t69 43.5t85 15q51 0 93.5 -17.5t73 -50.5t47 -80t16.5 -106h-302q4 -38 27.5 -64.5t69.5 -26.5q51 0 83.5 11.5t60.5 34.5l66 -84v0zM313 271q-3 33 -22.5 52.5
t-50.5 19.5q-33 0 -48 -20.5t-21 -51.5h142v0zM288 495v130h126v-130h-126zM74 495v130h126v-130h-126z" />
    <glyph glyph-name="igrave" unicode="&#xec;" horiz-adv-x="255" 
d="M50 0v431h155v-431h-155zM78 495l-109 167h143l77 -167h-111z" />
    <glyph glyph-name="iacute" unicode="&#xed;" horiz-adv-x="255" 
d="M50 0v431h155v-431h-155zM181 495h-111l77 167h143z" />
    <glyph glyph-name="icircumflex" unicode="&#xee;" horiz-adv-x="255" 
d="M50 0v431h155v-431h-155zM172 495l-45 70l-45 -70h-111l103 147h108l103 -147h-113z" />
    <glyph glyph-name="idieresis" unicode="&#xef;" horiz-adv-x="255" 
d="M164 495v130h126v-130h-126zM-37 495v130h126v-130h-126zM50 0v431h155v-431h-155z" />
    <glyph glyph-name="eth" unicode="&#xf0;" horiz-adv-x="516" 
d="M491 247q0 -62 -19 -110t-51.5 -81t-74.5 -50.5t-88 -17.5q-48 0 -90 17t-74 47.5t-50.5 72.5t-18.5 91q0 48 14 89.5t40.5 72t63.5 48t84 17.5q31 0 57.5 -11t43.5 -30q-6 32 -22.5 65.5t-41.5 66.5l-121 -49l-43 88l96 38q-35 34 -71 59l90 79q27 -18 53.5 -39.5
t52.5 -47.5l83 33l42 -88l-58 -23q45 -66 74 -148.5t29 -188.5zM339 217q0 18 -5 36.5t-15 33t-25.5 24t-36.5 9.5q-20 0 -35 -9.5t-25.5 -24.5t-15.5 -33.5t-5 -36.5q0 -19 5 -37.5t15.5 -33.5t26 -24.5t35.5 -9.5t35.5 9.5t25.5 24.5t15 34t5 38z" />
    <glyph glyph-name="ntilde" unicode="&#xf1;" horiz-adv-x="539" 
d="M337 0v222q0 44 -13 67.5t-48 23.5q-34 0 -52.5 -23t-18.5 -63v-227h-155v431h155v-45q21 29 53.5 43t70.5 14q43 0 74 -14.5t51 -39t29 -58t9 -72.5v-259h-155zM462 617q0 -58 -34 -91t-94 -33q-17 0 -34.5 6t-34.5 13q-17 8 -32 13.5t-27 5.5q-17 0 -29 -8t-12 -28h-83
q0 57 34 90.5t94 33.5q17 0 34.5 -6t34.5 -14q17 -7 31.5 -12.5t27.5 -5.5q17 0 29 8t12 28h83v0z" />
    <glyph glyph-name="ograve" unicode="&#xf2;" horiz-adv-x="515" 
d="M490 217q0 -48 -19 -90t-50.5 -72.5t-74 -48.5t-88.5 -18q-48 0 -90 17t-74 47.5t-50.5 72.5t-18.5 91q0 48 19 89.5t50.5 72t73.5 48t89 17.5t89.5 -17t74.5 -47t50.5 -71.5t18.5 -90.5zM339 217q0 18 -5 36.5t-15 33t-25.5 24t-36.5 9.5q-20 0 -35 -9.5t-25.5 -24.5
t-15.5 -33.5t-5 -36.5q0 -19 5 -37.5t15.5 -33.5t26 -24.5t35.5 -9.5t35.5 9.5t25.5 24.5t15 34t5 38zM207 495l-109 167h143l77 -167h-111z" />
    <glyph glyph-name="oacute" unicode="&#xf3;" horiz-adv-x="515" 
d="M490 217q0 -48 -19 -90t-50.5 -72.5t-74 -48.5t-88.5 -18q-48 0 -90 17t-74 47.5t-50.5 72.5t-18.5 91q0 48 19 89.5t50.5 72t73.5 48t89 17.5t89.5 -17t74.5 -47t50.5 -71.5t18.5 -90.5zM339 217q0 18 -5 36.5t-15 33t-25.5 24t-36.5 9.5q-20 0 -35 -9.5t-25.5 -24.5
t-15.5 -33.5t-5 -36.5q0 -19 5 -37.5t15.5 -33.5t26 -24.5t35.5 -9.5t35.5 9.5t25.5 24.5t15 34t5 38zM297 495h-111l77 167h143z" />
    <glyph glyph-name="ocircumflex" unicode="&#xf4;" horiz-adv-x="515" 
d="M490 217q0 -48 -19 -90t-50.5 -72.5t-74 -48.5t-88.5 -18q-48 0 -90 17t-74 47.5t-50.5 72.5t-18.5 91q0 48 19 89.5t50.5 72t73.5 48t89 17.5t89.5 -17t74.5 -47t50.5 -71.5t18.5 -90.5zM339 217q0 18 -5 36.5t-15 33t-25.5 24t-36.5 9.5q-20 0 -35 -9.5t-25.5 -24.5
t-15.5 -33.5t-5 -36.5q0 -19 5 -37.5t15.5 -33.5t26 -24.5t35.5 -9.5t35.5 9.5t25.5 24.5t15 34t5 38zM300 495l-45 70l-45 -70h-111l103 147h108l103 -147h-113z" />
    <glyph glyph-name="otilde" unicode="&#xf5;" horiz-adv-x="515" 
d="M490 217q0 -48 -19 -90t-50.5 -72.5t-74 -48.5t-88.5 -18q-48 0 -90 17t-74 47.5t-50.5 72.5t-18.5 91q0 48 19 89.5t50.5 72t73.5 48t89 17.5t89.5 -17t74.5 -47t50.5 -71.5t18.5 -90.5zM339 217q0 18 -5 36.5t-15 33t-25.5 24t-36.5 9.5q-20 0 -35 -9.5t-25.5 -24.5
t-15.5 -33.5t-5 -36.5q0 -19 5 -37.5t15.5 -33.5t26 -24.5t35.5 -9.5t35.5 9.5t25.5 24.5t15 34t5 38zM445 617q0 -58 -34 -91t-94 -33q-17 0 -34.5 6t-34.5 13q-17 8 -32 13.5t-27 5.5q-17 0 -29 -8t-12 -28h-83q0 57 34 90.5t94 33.5q17 0 34.5 -6t34.5 -14
q17 -7 31.5 -12.5t27.5 -5.5q17 0 29 8t12 28h83v0z" />
    <glyph glyph-name="odieresis" unicode="&#xf6;" horiz-adv-x="515" 
d="M490 217q0 -48 -19 -90t-50.5 -72.5t-74 -48.5t-88.5 -18q-48 0 -90 17t-74 47.5t-50.5 72.5t-18.5 91q0 48 19 89.5t50.5 72t73.5 48t89 17.5t89.5 -17t74.5 -47t50.5 -71.5t18.5 -90.5zM339 217q0 18 -5 36.5t-15 33t-25.5 24t-36.5 9.5q-20 0 -35 -9.5t-25.5 -24.5
t-15.5 -33.5t-5 -36.5q0 -19 5 -37.5t15.5 -33.5t26 -24.5t35.5 -9.5t35.5 9.5t25.5 24.5t15 34t5 38zM296 495v130h126v-130h-126zM82 495v130h126v-130h-126z" />
    <glyph glyph-name="divide" unicode="&#xf7;" 
d="M240 608v122h250v-122h-250zM608 240v250h122v-250h-122zM240 240v250h250v-250h-250zM0 240v250h122v-250h-122zM240 0v122h250v-122h-250z" />
    <glyph glyph-name="oslash" unicode="&#xf8;" horiz-adv-x="515" 
d="M448 348q20 -27 31 -60t11 -71q0 -48 -19 -90t-50.5 -72.5t-74 -48.5t-88.5 -18q-76 0 -135 42l-47 -46l-54 51l47 46q-21 28 -32.5 62.5t-11.5 72.5q0 48 19 89.5t50.5 72t73.5 48t89 17.5q38 0 74 -11.5t65 -31.5l50 49l56 -49zM339 217q0 18 -5 36.5t-15 33t-25.5 24
t-36.5 9.5q-20 0 -35 -9.5t-25.5 -24.5t-15.5 -33.5t-5 -36.5q0 -19 5 -37.5t15.5 -33.5t26 -24.5t35.5 -9.5t35.5 9.5t25.5 24.5t15 34t5 38z" />
    <glyph glyph-name="ugrave" unicode="&#xf9;" horiz-adv-x="539" 
d="M334 0v45q-21 -29 -53.5 -43t-70.5 -14q-44 0 -74.5 14.5t-50.5 39t-29 58t-9 72.5v259h155v-222q0 -44 13 -67.5t48 -23.5q34 0 52.5 23t18.5 63v227h155v-431h-155zM227 495l-109 167h143l77 -167h-111z" />
    <glyph glyph-name="uacute" unicode="&#xfa;" horiz-adv-x="539" 
d="M334 0v45q-21 -29 -53.5 -43t-70.5 -14q-44 0 -74.5 14.5t-50.5 39t-29 58t-9 72.5v259h155v-222q0 -44 13 -67.5t48 -23.5q34 0 52.5 23t18.5 63v227h155v-431h-155zM311 495h-111l77 167h143z" />
    <glyph glyph-name="ucircumflex" unicode="&#xfb;" horiz-adv-x="539" 
d="M334 0v45q-21 -29 -53.5 -43t-70.5 -14q-44 0 -74.5 14.5t-50.5 39t-29 58t-9 72.5v259h155v-222q0 -44 13 -67.5t48 -23.5q34 0 52.5 23t18.5 63v227h155v-431h-155zM311 495l-45 70l-45 -70h-111l103 147h108l103 -147h-113z" />
    <glyph glyph-name="udieresis" unicode="&#xfc;" horiz-adv-x="539" 
d="M334 0v45q-21 -29 -53.5 -43t-70.5 -14q-44 0 -74.5 14.5t-50.5 39t-29 58t-9 72.5v259h155v-222q0 -44 13 -67.5t48 -23.5q34 0 52.5 23t18.5 63v227h155v-431h-155zM311 495v130h126v-130h-126zM97 495v130h126v-130h-126z" />
    <glyph glyph-name="yacute" unicode="&#xfd;" horiz-adv-x="482" 
d="M291 -96q-15 -43 -43.5 -69t-79.5 -26h-90v127h33q23 0 41 12t18 31q0 15 -3 29t-9 31l-148 392h163l59 -196q3 -10 5.5 -19t4.5 -17l4 -18q1 8 4 17q2 8 4.5 17.5t5.5 19.5l51 196h161zM291 495h-111l77 167h143z" />
    <glyph glyph-name="thorn" unicode="&#xfe;" horiz-adv-x="562" 
d="M537 216q0 -44 -14.5 -85.5t-41 -73t-64 -50.5t-82.5 -19q-39 0 -75.5 15t-54.5 41v-223h-155v909h155v-343q18 26 54.5 41t75.5 15q45 0 82.5 -18.5t64 -49.5t41 -72.5t14.5 -86.5zM382 214q0 45 -25 72t-63 27q-41 0 -65 -27t-24 -72q0 -44 24.5 -70t64.5 -26
q38 0 63 25.5t25 70.5z" />
    <glyph glyph-name="ydieresis" unicode="&#xff;" horiz-adv-x="482" 
d="M291 -96q-15 -43 -43.5 -69t-79.5 -26h-90v127h33q23 0 41 12t18 31q0 15 -3 29t-9 31l-148 392h163l59 -196q3 -10 5.5 -19t4.5 -17l4 -18q1 8 4 17q2 8 4.5 17.5t5.5 19.5l51 196h161zM286 495v130h126v-130h-126zM72 495v130h126v-130h-126z" />
    <glyph glyph-name="OE" unicode="&#x152;" horiz-adv-x="1114" 
d="M632 0v78q-15 -19 -39 -35.5t-53.5 -28.5t-61.5 -19t-63 -7q-85 0 -154 30t-118 82t-76 121t-27 147q0 79 27 147t76.5 118.5t119 79.5t154.5 29q62 0 120 -23.5t95 -62.5v74h410v-135h-270v-171h251v-135h-251v-154h285v-135h-425zM627 368q0 48 -15 90.5t-42.5 74.5
t-66 50.5t-86.5 18.5q-47 0 -86 -19.5t-67 -52t-43.5 -74.5t-15.5 -88q0 -50 17 -94t45.5 -76.5t66.5 -51t81 -18.5q49 0 88.5 20t67 53.5t42 77t14.5 89.5z" />
    <glyph glyph-name="oe" unicode="&#x153;" horiz-adv-x="817" 
d="M790 60q-49 -41 -100 -56.5t-110 -15.5q-24 0 -49.5 5.5t-48.5 15.5t-42 24t-31 31q-10 -15 -26.5 -29t-37 -24.5t-43.5 -16.5t-44 -6q-48 0 -90 17t-74 47.5t-50.5 72.5t-18.5 91q0 48 19 89.5t50.5 72t73.5 48t89 17.5q48 0 89 -20t61 -52q9 15 25 28t36 23t42.5 15.5
t44.5 5.5q51 0 93.5 -17.5t73 -50.5t47 -80t16.5 -106h-302q4 -38 27.5 -64.5t69.5 -26.5q51 0 83.5 11.5t60.5 34.5l66 -84v0zM636 271q-3 33 -22.5 52.5t-50.5 19.5q-33 0 -48 -20.5t-21 -51.5h142v0zM339 217q0 18 -5 36.5t-15 33t-25.5 24t-36.5 9.5q-20 0 -35 -9.5
t-25.5 -24.5t-15.5 -33.5t-5 -36.5q0 -19 5 -37.5t15.5 -33.5t26 -24.5t35.5 -9.5t35.5 9.5t25.5 24.5t15 34t5 38z" />
    <glyph glyph-name="Scaron" unicode="&#x160;" horiz-adv-x="593" 
d="M540 207q0 -104 -68.5 -161.5t-187.5 -57.5q-76 0 -134 25t-111 66l83 112q32 -26 76 -44.5t89 -18.5q55 0 74 18t19 51q0 27 -21.5 46.5t-52.5 34t-64 26.5t-56 25q-27 15 -51 32t-42 40.5t-28 54.5t-10 75q0 56 22.5 96t59 65.5t83.5 37.5t95 12q52 0 109 -15t102 -48
l-72 -119q-24 18 -61.5 30t-77.5 12q-28 0 -47 -7t-31 -17.5t-17 -23t-5 -23.5q0 -25 16 -42t41.5 -30.5t57 -25t63.5 -25.5q27 -12 53 -28t47 -39.5t34 -56t13 -77.5zM350 790h-108l-103 147h113l45 -70l45 70h111z" />
    <glyph glyph-name="scaron" unicode="&#x161;" horiz-adv-x="414" 
d="M389 125q0 -37 -15 -63t-40.5 -42.5t-58.5 -24t-68 -7.5q-51 0 -101 12t-85 37l50 98q26 -16 54 -26.5t59 -10.5q25 0 37.5 6.5t12.5 17.5q0 17 -17.5 27t-43.5 19q-22 8 -46 18t-44.5 26t-33.5 39.5t-13 59.5q0 32 13 57t37 41.5t57 25t73 8.5q49 0 84 -9.5t73 -30.5
l-44 -96q-29 16 -56.5 22t-53.5 6q-18 0 -32.5 -4.5t-14.5 -18.5q0 -11 22.5 -20.5t54.5 -21.5q24 -9 48.5 -20.5t45 -28.5t33.5 -40.5t13 -55.5zM263 495h-108l-103 147h113l45 -70l45 70h111z" />
    <glyph glyph-name="Ydieresis" unicode="&#x178;" horiz-adv-x="690" 
d="M423 296v-296h-160v296l-248 434h182l134 -253q3 -6 5.5 -13t4.5 -13q2 -7 4 -13q1 6 4 13q3 12 10 26l133 253h183zM388 790v130h126v-130h-126zM174 790v130h126v-130h-126z" />
    <glyph glyph-name="florin" unicode="&#x192;" horiz-adv-x="366" 
d="M327 612h-25q-8 0 -13.5 -5t-9.5 -12.5t-6 -16t-3 -15.5l-11 -132h57l-10 -115h-57l-32 -362q-5 -60 -39.5 -96.5t-97.5 -36.5h-81l11 130h25q8 0 13.5 5t9.5 12.5t6 16t2 15.5l28 316h-54l10 115h54l15 178q5 60 40 96.5t98 36.5h81z" />
    <glyph glyph-name="circumflex" unicode="&#x2c6;" horiz-adv-x="500" 
d="M294 495l-45 70l-45 -70h-111l103 147h108l103 -147h-113z" />
    <glyph glyph-name="tilde" unicode="&#x2dc;" horiz-adv-x="500" 
d="M440 617q0 -58 -34 -91t-94 -33q-17 0 -34.5 6t-34.5 13q-17 8 -32 13.5t-27 5.5q-17 0 -29 -8t-12 -28h-83q0 57 34 90.5t94 33.5q17 0 34.5 -6t34.5 -14q17 -7 31.5 -12.5t27.5 -5.5q17 0 29 8t12 28h83v0z" />
    <glyph glyph-name="endash" unicode="&#x2013;" horiz-adv-x="460" 
d="M40 204v132h380v-132h-380z" />
    <glyph glyph-name="emdash" unicode="&#x2014;" horiz-adv-x="650" 
d="M40 204v132h570v-132h-570z" />
    <glyph glyph-name="quoteleft" unicode="&#x2018;" horiz-adv-x="250" 
d="M225 686q-15 -23 -23 -53.5t-8 -62.5v-115h-144v90q0 56 23.5 104t56.5 93l95 -56v0z" />
    <glyph glyph-name="quoteright" unicode="&#x2019;" horiz-adv-x="250" 
d="M194 640q0 -56 -23.5 -104t-56.5 -93l-95 56q15 23 23 53.5t8 62.5v115h144v-90v0z" />
    <glyph glyph-name="quotesinglbase" unicode="&#x201a;" horiz-adv-x="250" 
d="M194 25q0 -56 -23.5 -104t-56.5 -93l-95 56q15 23 23 53.5t8 62.5v115h144v-90v0z" />
    <glyph glyph-name="quotedblleft" unicode="&#x201c;" horiz-adv-x="450" 
d="M431 686q-15 -23 -23 -53.5t-8 -62.5v-115h-144v90q0 56 23.5 104t56.5 93l95 -56v0zM225 686q-15 -23 -23 -53.5t-8 -62.5v-115h-144v90q0 56 23.5 104t56.5 93l95 -56v0z" />
    <glyph glyph-name="quotedblright" unicode="&#x201d;" horiz-adv-x="450" 
d="M400 640q0 -56 -23.5 -104t-56.5 -93l-95 56q15 23 23 53.5t8 62.5v115h144v-90v0zM194 640q0 -56 -23.5 -104t-56.5 -93l-95 56q15 23 23 53.5t8 62.5v115h144v-90v0z" />
    <glyph glyph-name="quotedblbase" unicode="&#x201e;" horiz-adv-x="450" 
d="M400 25q0 -56 -23.5 -104t-56.5 -93l-95 56q15 23 23 53.5t8 62.5v115h144v-90v0zM194 25q0 -56 -23.5 -104t-56.5 -93l-95 56q15 23 23 53.5t8 62.5v115h144v-90v0z" />
    <glyph glyph-name="dagger" unicode="&#x2020;" horiz-adv-x="575" 
d="M357 338v-517h-139v517h-188v132h188v260h139v-260h188v-132h-188z" />
    <glyph glyph-name="daggerdbl" unicode="&#x2021;" horiz-adv-x="575" 
d="M357 72v-251h-139v251h-188v132h188v134h-188v132h188v260h139v-260h188v-132h-188v-134h188v-132h-188z" />
    <glyph glyph-name="bullet" unicode="&#x2022;" horiz-adv-x="382" 
d="M358 380q0 -35 -13 -65.5t-36 -53.5t-53.5 -36t-64.5 -13t-64.5 13t-53 36t-35.5 53.5t-13 65.5q0 34 13 64t35.5 52.5t53 35.5t64.5 13t64.5 -13t53.5 -35.5t36 -52.5t13 -64z" />
    <glyph glyph-name="ellipsis" unicode="&#x2026;" 
d="M530 0v151h150v-151h-150zM290 0v151h150v-151h-150zM50 0v151h150v-151h-150z" />
    <glyph glyph-name="perthousand" unicode="&#x2030;" horiz-adv-x="1114" 
d="M1084 179q0 -41 -11.5 -75.5t-32 -60.5t-49 -40.5t-61.5 -14.5q-27 0 -53.5 11.5t-48 35t-35 59t-13.5 82.5q0 40 11.5 74.5t32 60t48.5 40t61 14.5q34 0 62 -15t47.5 -40.5t30.5 -59t11 -71.5zM740 179q0 -41 -11.5 -75.5t-32 -60.5t-49 -40.5t-61.5 -14.5
q-27 0 -53.5 11.5t-48 35t-35 59t-13.5 82.5q0 40 11.5 74.5t32 60t48.5 40t61 14.5q34 0 62 -15t47.5 -40.5t30.5 -59t11 -71.5zM206 0h-141l499 730h141zM341 556q0 -41 -11.5 -75.5t-32 -60.5t-49 -40.5t-61.5 -14.5q-27 0 -53.5 11.5t-48 35t-35 59t-13.5 82.5
q0 40 11.5 74.5t32 60t48.5 40t61 14.5q34 0 62 -15t47.5 -40.5t30.5 -59t11 -71.5zM980 176q0 18 -2.5 36.5t-8 32.5t-14.5 23t-23 9t-23.5 -8.5t-15 -22.5t-8 -32.5t-2.5 -37.5t2 -37t7.5 -32t14.5 -22.5t23 -8.5q15 0 24.5 8.5t15.5 22.5t8 32t2 37zM636 176
q0 18 -2.5 36.5t-8 32.5t-14.5 23t-23 9t-23.5 -8.5t-15 -22.5t-8 -32.5t-2.5 -37.5t2 -37t7.5 -32t14.5 -22.5t23 -8.5q15 0 24.5 8.5t15.5 22.5t8 32t2 37zM237 553q0 18 -2.5 36.5t-8 32.5t-14.5 23t-23 9t-23.5 -8.5t-15 -22.5t-8 -32.5t-2.5 -37.5t2 -37t7.5 -32
t14.5 -22.5t23 -8.5q15 0 24.5 8.5t15.5 22.5t8 32t2 37z" />
    <glyph glyph-name="guilsinglleft" unicode="&#x2039;" horiz-adv-x="242" 
d="M40 152v136l152 111v-131l-65 -48l65 -48v-131z" />
    <glyph glyph-name="guilsinglright" unicode="&#x203a;" horiz-adv-x="242" 
d="M50 41v131l65 48l-65 48v131l152 -111v-136z" />
    <glyph glyph-name="trademark" unicode="&#x2122;" horiz-adv-x="819" 
d="M691 292v311l-127 -187h-34l-129 181v-305h-80v438h71l155 -214l150 214h74v-438h-80zM191 654v-362h-80v362h-79v76h242v-76h-83z" />
    <glyph glyph-name="NUL" horiz-adv-x="0" 
 />
    <glyph glyph-name="notequal" horiz-adv-x="589" 
d="M511 316v-316h-155v316h-54v115h54v178q0 60 31.5 96.5t94.5 36.5h81v-130h-25q-8 0 -13 -5t-8 -12.5t-4.5 -16t-1.5 -15.5v-132h57v-115h-57zM226 316v-316h-155v316h-54v115h54v178q0 60 31.5 96.5t94.5 36.5h81v-130h-25q-8 0 -13 -5t-8 -12.5t-4.5 -16t-1.5 -15.5
v-132h57v-115h-57z" />
    <glyph glyph-name="infinity" horiz-adv-x="844" 
d="M639 501v142h155v-142h-155zM639 0v431h155v-431h-155zM511 316v-316h-155v316h-54v115h54v178q0 60 31.5 96.5t94.5 36.5h81v-130h-25q-8 0 -13 -5t-8 -12.5t-4.5 -16t-1.5 -15.5v-132h57v-115h-57zM226 316v-316h-155v316h-54v115h54v178q0 60 31.5 96.5t94.5 36.5h81
v-130h-25q-8 0 -13 -5t-8 -12.5t-4.5 -16t-1.5 -15.5v-132h57v-115h-57z" />
    <glyph glyph-name="lessequal" 
d="M240 608v122h250v-122h-250zM608 240v250h122v-250h-122zM240 240v250h250v-250h-250zM0 240v250h122v-250h-122zM240 0v122h250v-122h-250z" />
    <glyph glyph-name="greaterequal" 
d="M240 608v122h250v-122h-250zM608 240v250h122v-250h-122zM240 240v250h250v-250h-250zM0 240v250h122v-250h-122zM240 0v122h250v-122h-250z" />
    <glyph glyph-name="partialdiff" 
d="M240 608v122h250v-122h-250zM608 240v250h122v-250h-122zM240 240v250h250v-250h-250zM0 240v250h122v-250h-122zM240 0v122h250v-122h-250z" />
    <glyph glyph-name="summation" 
d="M240 608v122h250v-122h-250zM608 240v250h122v-250h-122zM240 240v250h250v-250h-250zM0 240v250h122v-250h-122zM240 0v122h250v-122h-250z" />
    <glyph glyph-name="product" 
d="M240 608v122h250v-122h-250zM608 240v250h122v-250h-122zM240 240v250h250v-250h-250zM0 240v250h122v-250h-122zM240 0v122h250v-122h-250z" />
    <glyph glyph-name="pi" horiz-adv-x="844" 
d="M799 365q0 -78 -29.5 -146.5t-81 -120t-120 -81t-146.5 -29.5t-146.5 29.5t-120 81t-81 120t-29.5 146.5t29.5 146.5t81 120t120 81t146.5 29.5t146.5 -29.5t120 -81t81 -120t29.5 -146.5zM738 364q0 66 -25 123.5t-67.5 100t-100 67.5t-123.5 25t-123.5 -25t-100 -67.5
t-67.5 -100t-25 -123.5t25 -123t67.5 -100t100 -67.5t123.5 -24.5t123.5 24.5t100 67.5t67.5 100t25 123zM613 439q0 -26 -10 -51t-28.5 -45t-45 -32t-58.5 -12h-73v-153h-100v438h167q34 0 61.5 -12t46.5 -32t29.5 -46.5t10.5 -54.5zM511 443q0 30 -17.5 42.5t-42.5 12.5
h-53v-113h56q23 0 40 13.5t17 44.5z" />
    <glyph glyph-name="integral" 
d="M240 608v122h250v-122h-250zM608 240v250h122v-250h-122zM240 240v250h250v-250h-250zM0 240v250h122v-250h-122zM240 0v122h250v-122h-250z" />
    <glyph glyph-name="Omega" 
d="M240 608v122h250v-122h-250zM608 240v250h122v-250h-122zM240 240v250h250v-250h-250zM0 240v250h122v-250h-122zM240 0v122h250v-122h-250z" />
    <glyph glyph-name="radical" horiz-adv-x="582" 
d="M329 0h-151l-163 374h162l64 -150q2 -7 4.5 -13.5t4.5 -12.5l4 -14q1 7 3 14q2 6 3.5 13t3.5 13l147 506h156z" />
    <glyph glyph-name="approxequal" 
d="M240 608v122h250v-122h-250zM608 240v250h122v-250h-122zM240 240v250h250v-250h-250zM0 240v250h122v-250h-122zM240 0v122h250v-122h-250z" />
    <glyph glyph-name="Delta" 
d="M240 608v122h250v-122h-250zM608 240v250h122v-250h-122zM240 240v250h250v-250h-250zM0 240v250h122v-250h-122zM240 0v122h250v-122h-250z" />
    <glyph glyph-name="nonbreakingspace" horiz-adv-x="112" 
 />
    <glyph glyph-name="lozenge" 
d="M240 608v122h250v-122h-250zM608 240v250h122v-250h-122zM240 240v250h250v-250h-250zM0 240v250h122v-250h-122zM240 0v122h250v-122h-250z" />
    <glyph glyph-name="apple" 
d="M240 608v122h250v-122h-250zM608 240v250h122v-250h-122zM240 240v250h250v-250h-250zM0 240v250h122v-250h-122zM240 0v122h250v-122h-250z" />
    </font>
</defs>
</svg>
